# Blender v2.92.0 OBJ File: 'Wine.blend'
# www.blender.org
mtllib LIQUID.mtl
o LIQUID__outline
v -1.481046 1.537681 -0.981163
v -1.269432 1.406473 -1.230151
v 0.397072 0.373181 1.228674
v 0.143676 0.530295 1.416016
v -1.016036 1.249359 -1.417493
v -0.138796 0.705437 1.532315
v -0.733564 1.074216 -1.533790
v -0.436182 0.889826 1.571740
v -0.436181 0.889828 -1.573216
v -0.138798 0.705441 -1.533790
v -0.733565 1.074215 1.532315
v 0.143674 0.530299 -1.417493
v -1.016037 1.249357 1.416016
v 0.397071 0.373184 -1.230151
v -1.269433 1.406471 1.228676
v 0.608685 0.241975 -0.981165
v -1.481047 1.537679 0.979686
v 0.767904 0.143255 -0.683013
v -1.640265 1.636400 0.681536
v 0.866746 0.081969 -0.350649
v -1.739106 1.697687 0.349171
v 0.900253 0.061193 -0.000739
v -1.772613 1.718462 -0.000737
v 0.866746 0.081968 0.349169
v -1.739106 1.697687 -0.350648
v 0.767904 0.143252 0.681534
v -1.640265 1.636402 -0.683011
v 0.608686 0.241973 0.979685
v -0.773468 2.003583 1.094676
v -1.443064 2.003583 0.328537
v -0.091474 2.003583 1.287114
v 1.317332 2.003583 0.719688
v -1.066130 2.003583 0.894260
v 1.119137 2.003583 0.920850
v 0.871039 2.003583 -1.089019
v -1.443064 2.003583 -0.330012
v 1.317330 2.003583 -0.721165
v 1.119136 2.003583 -0.922327
v -0.440950 2.003583 1.226404
v -1.295976 2.003583 0.633804
v -1.295976 2.003583 -0.635278
v 1.461369 2.003583 0.493262
v -0.773468 2.003583 -1.096151
v 1.548681 2.003583 0.250331
v -1.493717 2.003583 -0.000737
v 0.254386 2.003583 -1.281078
v 1.577924 2.003583 -0.000738
v -1.066130 2.003583 -0.895737
v 0.579605 2.003583 -1.211731
v 1.548681 2.003583 -0.251808
v 0.254386 2.003582 1.279603
v -0.091474 2.003583 -1.288588
v -0.440951 2.003583 -1.227879
v 0.871042 2.003583 1.087544
v 1.461368 2.003583 -0.494738
v 0.579607 2.003582 1.210256
vt 0.000000 0.000000
vt 0.000000 0.000000
vt 0.000000 0.000000
vt 0.000000 0.000000
vt 0.000000 0.000000
vt 0.000000 0.000000
vt 0.000000 0.000000
vt 0.000000 0.000000
vt 0.000000 0.000000
vt 0.000000 0.000000
vt 0.000000 0.000000
vt 0.000000 0.000000
vt 0.000000 0.000000
vt 0.000000 0.000000
vt 0.000000 0.000000
vt 0.000000 0.000000
vt 0.000000 0.000000
vt 0.000000 0.000000
vt 0.000000 0.000000
vt 0.000000 0.000000
vt 0.000000 0.000000
vt 0.000000 0.000000
vt 0.000000 0.000000
vt 0.000000 0.000000
vt 0.000000 0.000000
vt 0.000000 0.000000
vt 0.000000 0.000000
vt 0.000000 0.000000
vt 0.000000 0.000000
vt 0.000000 0.000000
vt 0.000000 0.000000
vt 0.000000 0.000000
vt 0.000000 0.000000
vt 0.000000 0.000000
vt 0.000000 0.000000
vt 0.000000 0.000000
vt 0.000000 0.000000
vt 0.000000 0.000000
vt 0.000000 0.000000
vt 0.000000 0.000000
vt 0.000000 0.000000
vt 0.000000 0.000000
vt 0.000000 0.000000
vt 0.000000 0.000000
vt 0.000000 0.000000
vt 0.000000 0.000000
vt 0.000000 0.000000
vt 0.000000 0.000000
vt 0.000000 0.000000
vt 0.000000 0.000000
vt 0.000000 0.000000
vt 0.000000 0.000000
vt 0.000000 0.000000
vt 0.000000 0.000000
vt 0.000000 0.000000
vt 0.000000 0.000000
vn -0.5339 0.5870 -0.6086
vn -0.5190 0.5777 -0.6299
vn -0.3802 0.4916 -0.7835
vn -0.4025 0.5056 -0.7631
vn 0.6319 -0.1358 0.7631
vn 0.6516 -0.1481 0.7440
vn 0.5007 -0.0546 0.8639
vn 0.4746 -0.0382 0.8794
vn -0.2167 0.3902 -0.8948
vn -0.2453 0.4081 -0.8794
vn 0.3301 0.0512 0.9426
vn 0.2992 0.0705 0.9516
vn -0.0377 0.2792 -0.9595
vn -0.0699 0.2994 -0.9516
vn 0.1477 0.1643 0.9753
vn 0.1147 0.1849 0.9760
vn 0.1147 0.1849 -0.9760
vn 0.1477 0.1643 -0.9753
vn 0.3301 0.0512 -0.9426
vn 0.2992 0.0705 -0.9516
vn -0.0377 0.2792 0.9595
vn -0.0699 0.2994 0.9516
vn 0.5007 -0.0546 -0.8639
vn 0.4746 -0.0382 -0.8794
vn -0.2167 0.3902 0.8948
vn -0.2453 0.4081 0.8794
vn 0.6516 -0.1481 -0.7440
vn 0.6319 -0.1358 -0.7631
vn -0.3802 0.4916 0.7835
vn -0.4025 0.5056 0.7631
vn 0.7758 -0.2251 -0.5894
vn 0.7632 -0.2172 -0.6086
vn -0.5190 0.5777 0.6299
vn -0.5339 0.5870 0.6086
vn 0.8682 -0.2823 -0.4081
vn 0.8620 -0.2785 -0.4235
vn -0.6252 0.6436 0.4414
vn -0.6327 0.6483 0.4235
vn 0.9250 -0.3175 -0.2086
vn 0.9234 -0.3165 -0.2172
vn -0.6921 0.6851 0.2274
vn -0.6941 0.6864 0.2172
vn 0.9442 -0.3294 0.0000
vn -0.7149 0.6993 0.0000
vn 0.9250 -0.3175 0.2086
vn 0.9234 -0.3165 0.2172
vn -0.6921 0.6851 -0.2274
vn -0.6941 0.6864 -0.2172
vn 0.8682 -0.2823 0.4081
vn 0.8620 -0.2785 0.4235
vn -0.6252 0.6436 -0.4414
vn -0.6327 0.6483 -0.4235
vn 0.7758 -0.2251 0.5894
vn 0.7632 -0.2172 0.6086
usemtl None
s 1
f 1/1/1 48/2/2 43/3/3 2/4/4
f 3/5/5 34/6/6 54/7/7 4/8/8
f 2/4/4 43/3/3 53/9/9 5/10/10
f 4/8/8 54/7/7 56/11/11 6/12/12
f 5/10/10 53/9/9 52/13/13 7/14/14
f 6/12/12 56/11/11 51/15/15 8/16/16
f 9/17/17 46/18/18 49/19/19 10/20/20
f 7/14/14 52/13/13 46/18/18 9/17/17
f 8/16/16 51/15/15 31/21/21 11/22/22
f 10/20/20 49/19/19 35/23/23 12/24/24
f 11/22/22 31/21/21 39/25/25 13/26/26
f 12/24/24 35/23/23 38/27/27 14/28/28
f 13/26/26 39/25/25 29/29/29 15/30/30
f 14/28/28 38/27/27 37/31/31 16/32/32
f 15/30/30 29/29/29 33/33/33 17/34/34
f 16/32/32 37/31/31 55/35/35 18/36/36
f 17/34/34 33/33/33 40/37/37 19/38/38
f 18/36/36 55/35/35 50/39/39 20/40/40
f 19/38/38 40/37/37 30/41/41 21/42/42
f 20/40/40 50/39/39 47/43/43 22/44/43
f 21/42/42 30/41/41 45/45/44 23/46/44
f 22/44/43 47/43/43 44/47/45 24/48/46
f 23/46/44 45/45/44 36/49/47 25/50/48
f 24/48/46 44/47/45 42/51/49 26/52/50
f 25/50/48 36/49/47 41/53/51 27/54/52
f 26/52/50 42/51/49 32/55/53 28/56/54
f 27/54/52 41/53/51 48/2/2 1/1/1
f 28/56/54 32/55/53 34/6/6 3/5/5
o LIQUID__base
v 0.397072 0.373181 1.228674
v -0.950220 0.060778 -0.000738
v 0.608686 0.241973 0.979685
v -1.481046 1.537681 -0.981163
v -1.640265 1.636402 -0.683011
v 0.767904 0.143252 0.681534
v -1.739106 1.697687 -0.350648
v 0.866746 0.081968 0.349169
v -1.772613 1.718462 -0.000737
v 0.900253 0.061193 -0.000739
v -1.739106 1.697687 0.349171
v 0.866746 0.081969 -0.350649
v -1.640265 1.636400 0.681536
v 0.767904 0.143255 -0.683013
v -1.481047 1.537679 0.979686
v 0.608685 0.241975 -0.981165
v -1.269433 1.406471 1.228676
v 0.397071 0.373184 -1.230151
v -1.016037 1.249357 1.416016
v 0.143674 0.530299 -1.417493
v -0.733565 1.074215 1.532315
v -0.138798 0.705441 -1.533790
v -0.436182 0.889826 1.571740
v -0.436181 0.889828 -1.573216
v -0.733564 1.074216 -1.533790
v -0.138796 0.705437 1.532315
v -1.016036 1.249359 -1.417493
v 0.143676 0.530295 1.416016
v -1.269432 1.406473 -1.230151
vt 0.000000 0.000000
vt 0.000000 0.000000
vt 0.000000 0.000000
vt 0.000000 0.000000
vt 0.000000 0.000000
vt 0.000000 0.000000
vt 0.000000 0.000000
vt 0.000000 0.000000
vt 0.000000 0.000000
vt 0.000000 0.000000
vt 0.000000 0.000000
vt 0.000000 0.000000
vt 0.000000 0.000000
vt 0.000000 0.000000
vt 0.000000 0.000000
vt 0.000000 0.000000
vt 0.000000 0.000000
vt 0.000000 0.000000
vt 0.000000 0.000000
vt 0.000000 0.000000
vt 0.000000 0.000000
vt 0.000000 0.000000
vt 0.000000 0.000000
vt 0.000000 0.000000
vt 0.000000 0.000000
vt 0.000000 0.000000
vt 0.000000 0.000000
vt 0.000000 0.000000
vt 0.000000 0.000000
vn -0.1685 -0.8954 0.4121
vn -0.5270 -0.8499 -0.0000
vn -0.0975 -0.9394 0.3287
vn -0.7981 -0.5050 -0.3287
vn -0.8514 -0.4719 -0.2287
vn -0.0441 -0.9725 0.2287
vn -0.8846 -0.4514 -0.1173
vn -0.0110 -0.9930 0.1173
vn -0.8958 -0.4444 0.0000
vn 0.0002 -1.0000 -0.0000
vn -0.8846 -0.4514 0.1173
vn -0.0110 -0.9930 -0.1173
vn -0.8514 -0.4719 0.2287
vn -0.0441 -0.9725 -0.2287
vn -0.7981 -0.5050 0.3287
vn -0.0975 -0.9394 -0.3287
vn -0.7271 -0.5490 0.4121
vn -0.1685 -0.8954 -0.4121
vn -0.6422 -0.6017 0.4749
vn -0.2534 -0.8427 -0.4749
vn -0.5475 -0.6604 0.5139
vn -0.3481 -0.7840 -0.5139
vn -0.4478 -0.7222 0.5272
vn -0.4478 -0.7222 -0.5272
vn -0.5475 -0.6604 -0.5139
vn -0.3481 -0.7840 0.5139
vn -0.6422 -0.6017 -0.4749
vn -0.2534 -0.8427 0.4749
vn -0.7271 -0.5490 -0.4121
usemtl None
s 1
f 57/57/55 58/58/56 59/59/57
f 60/60/58 58/58/56 61/61/59
f 59/59/57 58/58/56 62/62/60
f 61/61/59 58/58/56 63/63/61
f 62/62/60 58/58/56 64/64/62
f 63/63/61 58/58/56 65/65/63
f 64/64/62 58/58/56 66/66/64
f 65/65/63 58/58/56 67/67/65
f 66/66/64 58/58/56 68/68/66
f 67/67/65 58/58/56 69/69/67
f 68/68/66 58/58/56 70/70/68
f 69/69/67 58/58/56 71/71/69
f 70/70/68 58/58/56 72/72/70
f 71/71/69 58/58/56 73/73/71
f 72/72/70 58/58/56 74/74/72
f 73/73/71 58/58/56 75/75/73
f 74/74/72 58/58/56 76/76/74
f 75/75/73 58/58/56 77/77/75
f 76/76/74 58/58/56 78/78/76
f 77/77/75 58/58/56 79/79/77
f 80/80/78 58/58/56 81/81/79
f 78/78/76 58/58/56 80/80/78
f 79/79/77 58/58/56 82/82/80
f 81/81/79 58/58/56 83/83/81
f 82/82/80 58/58/56 84/84/82
f 83/83/81 58/58/56 85/85/83
f 84/84/82 58/58/56 57/57/55
f 85/85/83 58/58/56 60/60/58
