# Blender v2.92.0 OBJ File: 'Cicchetto_2.blend'
# www.blender.org
mtllib Liquido_superiore.mtl
o LIQUIDO_parete_superiore
v -0.481729 1.791394 -0.384167
v -0.384167 1.791394 -0.481730
v 0.384167 1.791394 0.481730
v 0.267340 1.791394 0.555137
v -0.267340 1.791394 -0.555137
v 0.137108 1.791394 0.600707
v -0.137108 1.791394 -0.600707
v -0.000000 1.791394 0.616155
v -0.000000 1.791394 -0.616155
v 0.137106 1.791394 -0.600707
v -0.137107 1.791394 0.600708
v 0.267339 1.791394 -0.555137
v -0.267340 1.791394 0.555137
v 0.384166 1.791394 -0.481730
v -0.384166 1.791394 0.481730
v 0.481729 1.791394 -0.384167
v -0.481729 1.791394 0.384167
v 0.555136 1.791394 -0.267340
v -0.555137 1.791394 0.267340
v 0.600707 1.791394 -0.137108
v -0.600707 1.791394 0.137107
v 0.616156 1.791394 -0.000000
v -0.616156 1.791394 0.000000
v 0.600707 1.791394 0.137107
v -0.600707 1.791394 -0.137107
v 0.555137 1.791394 0.267340
v -0.555137 1.791394 -0.267340
v 0.481730 1.791394 0.384167
v -0.400894 1.400465 -0.319703
v 0.319703 1.400465 0.400895
v -0.000000 1.400465 -0.512763
v -0.319703 1.400465 -0.400895
v 0.222479 1.400465 -0.461984
v 0.512764 1.400465 -0.000000
v -0.114100 1.400465 0.499908
v -0.222480 1.400465 0.461984
v -0.512764 1.400465 0.000000
v 0.222480 1.400465 0.461984
v -0.499907 1.400465 0.114100
v 0.319702 1.400465 -0.400895
v 0.499907 1.400465 0.114100
v -0.222480 1.400465 -0.461984
v -0.319703 1.400465 0.400895
v -0.499907 1.400465 -0.114101
v 0.114101 1.400465 0.499907
v 0.400894 1.400465 -0.319703
v 0.461984 1.400465 0.222480
v -0.114101 1.400465 -0.499907
v -0.400894 1.400465 0.319703
v -0.461984 1.400465 -0.222480
v -0.000000 1.400465 0.512763
v 0.461983 1.400465 -0.222480
v 0.400895 1.400465 0.319703
v -0.461984 1.400465 0.222480
v 0.114100 1.400465 -0.499908
v 0.499907 1.400465 -0.114101
vt 0.000000 0.000000
vt 0.000000 0.000000
vt 0.000000 0.000000
vt 0.000000 0.000000
vt 0.000000 0.000000
vt 0.000000 0.000000
vt 0.000000 0.000000
vt 0.000000 0.000000
vt 0.000000 0.000000
vt 0.000000 0.000000
vt 0.000000 0.000000
vt 0.000000 0.000000
vt 0.000000 0.000000
vt 0.000000 0.000000
vt 0.000000 0.000000
vt 0.000000 0.000000
vt 0.000000 0.000000
vt 0.000000 0.000000
vt 0.000000 0.000000
vt 0.000000 0.000000
vt 0.000000 0.000000
vt 0.000000 0.000000
vt 0.000000 0.000000
vt 0.000000 0.000000
vt 0.000000 0.000000
vt 0.000000 0.000000
vt 0.000000 0.000000
vt 0.000000 0.000000
vt 0.000000 0.000000
vt 0.000000 0.000000
vt 0.000000 0.000000
vt 0.000000 0.000000
vt 0.000000 0.000000
vt 0.000000 0.000000
vt 0.000000 0.000000
vt 0.000000 0.000000
vt 0.000000 0.000000
vt 0.000000 0.000000
vt 0.000000 0.000000
vt 0.000000 0.000000
vt 0.000000 0.000000
vt 0.000000 0.000000
vt 0.000000 0.000000
vt 0.000000 0.000000
vt 0.000000 0.000000
vt 0.000000 0.000000
vt 0.000000 0.000000
vt 0.000000 0.000000
vt 0.000000 0.000000
vt 0.000000 0.000000
vt 0.000000 0.000000
vt 0.000000 0.000000
vt 0.000000 0.000000
vt 0.000000 0.000000
vt 0.000000 0.000000
vt 0.000000 0.000000
vn -0.7558 -0.2557 -0.6028
vn -0.6028 -0.2557 -0.7558
vn 0.6028 -0.2557 0.7558
vn 0.4195 -0.2557 0.8710
vn -0.4195 -0.2557 -0.8710
vn 0.2151 -0.2557 0.9425
vn -0.2151 -0.2557 -0.9425
vn 0.0000 -0.2557 0.9668
vn -0.0000 -0.2557 -0.9668
vn 0.2151 -0.2557 -0.9425
vn -0.2151 -0.2557 0.9425
vn 0.4195 -0.2557 -0.8710
vn -0.4195 -0.2557 0.8710
vn 0.6028 -0.2557 -0.7558
vn -0.6028 -0.2557 0.7558
vn 0.7558 -0.2557 -0.6028
vn -0.7558 -0.2557 0.6028
vn 0.8710 -0.2557 -0.4195
vn -0.8710 -0.2557 0.4195
vn 0.9425 -0.2557 -0.2151
vn -0.9425 -0.2557 0.2151
vn 0.9668 -0.2557 0.0000
vn -0.9668 -0.2557 0.0000
vn 0.9425 -0.2557 0.2151
vn -0.9425 -0.2557 -0.2151
vn 0.8710 -0.2557 0.4195
vn -0.8710 -0.2557 -0.4195
vn 0.7558 -0.2557 0.6028
usemtl None.003
s 1
f 29/1/1 1/2/1 2/3/2 32/4/2
f 30/5/3 3/6/3 4/7/4 38/8/4
f 32/4/2 2/3/2 5/9/5 42/10/5
f 38/8/4 4/7/4 6/11/6 45/12/6
f 42/10/5 5/9/5 7/13/7 48/14/7
f 45/12/6 6/11/6 8/15/8 51/16/8
f 31/17/9 9/18/9 10/19/10 55/20/10
f 48/14/7 7/13/7 9/18/9 31/17/9
f 51/16/8 8/15/8 11/21/11 35/22/11
f 55/20/10 10/19/10 12/23/12 33/24/12
f 35/22/11 11/21/11 13/25/13 36/26/13
f 33/24/12 12/23/12 14/27/14 40/28/14
f 36/26/13 13/25/13 15/29/15 43/30/15
f 40/28/14 14/27/14 16/31/16 46/32/16
f 43/30/15 15/29/15 17/33/17 49/34/17
f 46/32/16 16/31/16 18/35/18 52/36/18
f 49/34/17 17/33/17 19/37/19 54/38/19
f 52/36/18 18/35/18 20/39/20 56/40/20
f 54/38/19 19/37/19 21/41/21 39/42/21
f 56/40/20 20/39/20 22/43/22 34/44/22
f 39/42/21 21/41/21 23/45/23 37/46/23
f 34/44/22 22/43/22 24/47/24 41/48/24
f 37/46/23 23/45/23 25/49/25 44/50/25
f 41/48/24 24/47/24 26/51/26 47/52/26
f 44/50/25 25/49/25 27/53/27 50/54/27
f 47/52/26 26/51/26 28/55/28 53/56/28
f 50/54/27 27/53/27 1/2/1 29/1/1
f 53/56/28 28/55/28 3/6/3 30/5/3
