# Blender v2.92.0 OBJ File: 'Martini_super_potente.blend'
# www.blender.org
mtllib bicchiere_inferiore_esterno.mtl
o bicchiere_inf_esterno
v -0.132865 3.579836 -0.105957
v -0.845744 4.907406 -0.674458
v -0.674458 4.907406 -0.845743
v -0.105956 3.579836 -0.132865
v 0.105956 3.579836 0.132865
v 0.674458 4.907406 0.845743
v 0.469352 4.907406 0.974620
v 0.073734 3.579836 0.153111
v -0.469352 4.907406 -0.974618
v -0.073735 3.579836 -0.153111
v 0.240712 4.907406 1.054626
v 0.037815 3.579836 0.165680
v -0.240711 4.907406 -1.054625
v -0.037816 3.579836 -0.165680
v -0.000000 4.907406 1.081747
v -0.000000 3.579836 0.169940
v -0.000000 3.579836 -0.169941
v -0.000000 4.907406 -1.081746
v 0.240710 4.907406 -1.054625
v 0.037815 3.579836 -0.165680
v -0.240711 4.907406 1.054626
v -0.037816 3.579836 0.165680
v 0.469350 4.907406 -0.974620
v 0.073734 3.579836 -0.153112
v -0.469352 4.907406 0.974620
v -0.073735 3.579836 0.153111
v 0.674457 4.907406 -0.845744
v 0.105956 3.579836 -0.132865
v -0.674458 4.907406 0.845744
v -0.105956 3.579836 0.132865
v 0.845742 4.907406 -0.674459
v 0.132865 3.579836 -0.105957
v -0.845744 4.907406 0.674458
v -0.132865 3.579836 0.105956
v 0.974620 4.907406 -0.469353
v 0.153111 3.579836 -0.073735
v -0.974620 4.907406 0.469352
v -0.153111 3.579836 0.073734
v 1.054625 4.907406 -0.240712
v 0.165680 3.579836 -0.037816
v -1.054625 4.907406 0.240711
v -0.165680 3.579836 0.037815
v 1.081747 4.907406 -0.000001
v 0.169940 3.579836 -0.000000
v -1.081747 4.907406 0.000000
v -0.169941 3.579836 -0.000000
v 1.054625 4.907406 0.240710
v 0.165680 3.579836 0.037815
v -1.054625 4.907406 -0.240711
v -0.165680 3.579836 -0.037816
v 0.974621 4.907406 0.469352
v 0.153111 3.579836 0.073734
v -0.974620 4.907406 -0.469352
v -0.153111 3.579836 -0.073735
v 0.845744 4.907406 0.674458
v 0.132865 3.579836 0.105956
vt 0.000000 0.000000
vt 0.000000 0.000000
vt 0.000000 0.000000
vt 0.000000 0.000000
vt 0.000000 0.000000
vt 0.000000 0.000000
vt 0.000000 0.000000
vt 0.000000 0.000000
vt 0.000000 0.000000
vt 0.000000 0.000000
vt 0.000000 0.000000
vt 0.000000 0.000000
vt 0.000000 0.000000
vt 0.000000 0.000000
vt 0.000000 0.000000
vt 0.000000 0.000000
vt 0.000000 0.000000
vt 0.000000 0.000000
vt 0.000000 0.000000
vt 0.000000 0.000000
vt 0.000000 0.000000
vt 0.000000 0.000000
vt 0.000000 0.000000
vt 0.000000 0.000000
vt 0.000000 0.000000
vt 0.000000 0.000000
vt 0.000000 0.000000
vt 0.000000 0.000000
vt 0.000000 0.000000
vt 0.000000 0.000000
vt 0.000000 0.000000
vt 0.000000 0.000000
vt 0.000000 0.000000
vt 0.000000 0.000000
vt 0.000000 0.000000
vt 0.000000 0.000000
vt 0.000000 0.000000
vt 0.000000 0.000000
vt 0.000000 0.000000
vt 0.000000 0.000000
vt 0.000000 0.000000
vt 0.000000 0.000000
vt 0.000000 0.000000
vt 0.000000 0.000000
vt 0.000000 0.000000
vt 0.000000 0.000000
vt 0.000000 0.000000
vt 0.000000 0.000000
vt 0.000000 0.000000
vt 0.000000 0.000000
vt 0.000000 0.000000
vt 0.000000 0.000000
vt 0.000000 0.000000
vt 0.000000 0.000000
vt 0.000000 0.000000
vt 0.000000 0.000000
vn -0.6445 -0.5661 -0.5139
vn -0.5139 -0.5661 -0.6445
vn 0.5139 -0.5662 0.6445
vn 0.3577 -0.5662 0.7427
vn -0.3577 -0.5661 -0.7427
vn 0.1834 -0.5662 0.8036
vn -0.1834 -0.5661 -0.8036
vn -0.0000 -0.5662 0.8243
vn 0.0000 -0.5661 -0.8243
vn 0.1834 -0.5661 -0.8036
vn -0.1834 -0.5662 0.8036
vn 0.3577 -0.5661 -0.7427
vn -0.3577 -0.5661 0.7427
vn 0.5139 -0.5661 -0.6445
vn -0.5139 -0.5661 0.6445
vn 0.6445 -0.5661 -0.5139
vn -0.6445 -0.5661 0.5139
vn 0.7427 -0.5661 -0.3577
vn -0.7427 -0.5661 0.3577
vn 0.8036 -0.5661 -0.1834
vn -0.8036 -0.5661 0.1834
vn 0.8243 -0.5662 0.0000
vn -0.8243 -0.5661 0.0000
vn 0.8036 -0.5661 0.1834
vn -0.8036 -0.5661 -0.1834
vn 0.7427 -0.5661 0.3577
vn -0.7427 -0.5661 -0.3577
vn 0.6445 -0.5662 0.5139
usemtl None.001
s 1
f 1/1/1 2/2/1 3/3/2 4/4/2
f 5/5/3 6/6/3 7/7/4 8/8/4
f 4/4/2 3/3/2 9/9/5 10/10/5
f 8/8/4 7/7/4 11/11/6 12/12/6
f 10/10/5 9/9/5 13/13/7 14/14/7
f 12/12/6 11/11/6 15/15/8 16/16/8
f 17/17/9 18/18/9 19/19/10 20/20/10
f 14/14/7 13/13/7 18/18/9 17/17/9
f 16/16/8 15/15/8 21/21/11 22/22/11
f 20/20/10 19/19/10 23/23/12 24/24/12
f 22/22/11 21/21/11 25/25/13 26/26/13
f 24/24/12 23/23/12 27/27/14 28/28/14
f 26/26/13 25/25/13 29/29/15 30/30/15
f 28/28/14 27/27/14 31/31/16 32/32/16
f 30/30/15 29/29/15 33/33/17 34/34/17
f 32/32/16 31/31/16 35/35/18 36/36/18
f 34/34/17 33/33/17 37/37/19 38/38/19
f 36/36/18 35/35/18 39/39/20 40/40/20
f 38/38/19 37/37/19 41/41/21 42/42/21
f 40/40/20 39/39/20 43/43/22 44/44/22
f 42/42/21 41/41/21 45/45/23 46/46/23
f 44/44/22 43/43/22 47/47/24 48/48/24
f 46/46/23 45/45/23 49/49/25 50/50/25
f 48/48/24 47/47/24 51/51/26 52/52/26
f 50/50/25 49/49/25 53/53/27 54/54/27
f 52/52/26 51/51/26 55/55/28 56/56/28
f 54/54/27 53/53/27 2/2/1 1/1/1
f 56/56/28 55/55/28 6/6/3 5/5/3
o base_bicchiere
v 0.105956 3.579836 0.132865
v -0.000000 3.579836 -0.000000
v 0.132865 3.579836 0.105956
v -0.132865 3.579836 -0.105957
v -0.153111 3.579836 -0.073735
v 0.153111 3.579836 0.073734
v -0.165680 3.579836 -0.037816
v 0.165680 3.579836 0.037815
v -0.169941 3.579836 -0.000000
v 0.169940 3.579836 -0.000000
v -0.165680 3.579836 0.037815
v 0.165680 3.579836 -0.037816
v -0.153111 3.579836 0.073734
v 0.153111 3.579836 -0.073735
v -0.132865 3.579836 0.105956
v 0.132865 3.579836 -0.105957
v -0.105956 3.579836 0.132865
v 0.105956 3.579836 -0.132865
v -0.073735 3.579836 0.153111
v 0.073734 3.579836 -0.153112
v -0.037816 3.579836 0.165680
v 0.037815 3.579836 -0.165680
v -0.000000 3.579836 0.169940
v -0.000000 3.579836 -0.169941
v -0.037816 3.579836 -0.165680
v 0.037815 3.579836 0.165680
v -0.073735 3.579836 -0.153111
v 0.073734 3.579836 0.153111
v -0.105956 3.579836 -0.132865
vt 0.000000 0.000000
vt 0.000000 0.000000
vt 0.000000 0.000000
vt 0.000000 0.000000
vt 0.000000 0.000000
vt 0.000000 0.000000
vt 0.000000 0.000000
vt 0.000000 0.000000
vt 0.000000 0.000000
vt 0.000000 0.000000
vt 0.000000 0.000000
vt 0.000000 0.000000
vt 0.000000 0.000000
vt 0.000000 0.000000
vt 0.000000 0.000000
vt 0.000000 0.000000
vt 0.000000 0.000000
vt 0.000000 0.000000
vt 0.000000 0.000000
vt 0.000000 0.000000
vt 0.000000 0.000000
vt 0.000000 0.000000
vt 0.000000 0.000000
vt 0.000000 0.000000
vt 0.000000 0.000000
vt 0.000000 0.000000
vt 0.000000 0.000000
vt 0.000000 0.000000
vt 0.000000 0.000000
vn 0.0000 -1.0000 -0.0000
usemtl None.001
s 1
f 57/57/29 58/58/29 59/59/29
f 60/60/29 58/58/29 61/61/29
f 59/59/29 58/58/29 62/62/29
f 61/61/29 58/58/29 63/63/29
f 62/62/29 58/58/29 64/64/29
f 63/63/29 58/58/29 65/65/29
f 64/64/29 58/58/29 66/66/29
f 65/65/29 58/58/29 67/67/29
f 66/66/29 58/58/29 68/68/29
f 67/67/29 58/58/29 69/69/29
f 68/68/29 58/58/29 70/70/29
f 69/69/29 58/58/29 71/71/29
f 70/70/29 58/58/29 72/72/29
f 71/71/29 58/58/29 73/73/29
f 72/72/29 58/58/29 74/74/29
f 73/73/29 58/58/29 75/75/29
f 74/74/29 58/58/29 76/76/29
f 75/75/29 58/58/29 77/77/29
f 76/76/29 58/58/29 78/78/29
f 77/77/29 58/58/29 79/79/29
f 80/80/29 58/58/29 81/81/29
f 78/78/29 58/58/29 80/80/29
f 79/79/29 58/58/29 82/82/29
f 81/81/29 58/58/29 83/83/29
f 82/82/29 58/58/29 84/84/29
f 83/83/29 58/58/29 85/85/29
f 84/84/29 58/58/29 57/57/29
f 85/85/29 58/58/29 60/60/29
