# Blender v2.92.0 OBJ File: 'Martini_super_potente.blend'
# www.blender.org
mtllib Contatto_liquido_aria.mtl
o contatto_liquido_aria
v 0.235606 4.907406 -1.032265
v 0.459399 4.907407 -0.953956
v -0.000000 4.907406 -0.000000
v -0.000000 4.907406 1.058811
v -0.235607 4.907406 1.032266
v -0.235608 4.907406 -1.032264
v -0.000000 4.907407 -1.058811
v 0.235608 4.907406 1.032264
v -0.459401 4.907407 -0.953955
v 0.459401 4.907406 0.953956
v -0.660158 4.907406 -0.827812
v 0.660158 4.907406 0.827812
v 0.827812 4.907406 0.660158
v 0.660156 4.907406 -0.827813
v 0.827811 4.907406 -0.660159
v -0.459401 4.907406 0.953956
v -0.660157 4.907406 0.827812
v 1.032264 4.907406 0.235606
v 0.953956 4.907406 0.459400
v -1.032264 4.907406 -0.235607
v -0.953956 4.907406 -0.459401
v -0.827811 4.907406 -0.660158
v -0.827811 4.907406 0.660158
v 0.953955 4.907406 -0.459402
v -0.953956 4.907406 0.459400
v 1.032264 4.907406 -0.235608
v -1.032264 4.907406 0.235607
v 1.058812 4.907406 -0.000001
v -1.058811 4.907406 0.000000
vt 0.000000 0.000000
vt 0.000000 0.000000
vt 0.000000 0.000000
vt 0.000000 0.000000
vt 0.000000 0.000000
vt 0.000000 0.000000
vt 0.000000 0.000000
vt 0.000000 0.000000
vt 0.000000 0.000000
vt 0.000000 0.000000
vt 0.000000 0.000000
vt 0.000000 0.000000
vt 0.000000 0.000000
vt 0.000000 0.000000
vt 0.000000 0.000000
vt 0.000000 0.000000
vt 0.000000 0.000000
vt 0.000000 0.000000
vt 0.000000 0.000000
vt 0.000000 0.000000
vt 0.000000 0.000000
vt 0.000000 0.000000
vt 0.000000 0.000000
vt 0.000000 0.000000
vt 0.000000 0.000000
vt 0.000000 0.000000
vt 0.000000 0.000000
vt 0.000000 0.000000
vt 0.000000 0.000000
vn 0.0000 1.0000 -0.0000
usemtl None
s 1
f 1/1/1 3/2/1 2/3/1
f 4/4/1 3/2/1 5/5/1
f 6/6/1 3/2/1 7/7/1
f 7/7/1 3/2/1 1/1/1
f 8/8/1 3/2/1 4/4/1
f 9/9/1 3/2/1 6/6/1
f 10/10/1 3/2/1 8/8/1
f 11/11/1 3/2/1 9/9/1
f 12/12/1 3/2/1 10/10/1
f 13/13/1 3/2/1 12/12/1
f 14/14/1 3/2/1 15/15/1
f 16/16/1 3/2/1 17/17/1
f 2/3/1 3/2/1 14/14/1
f 5/5/1 3/2/1 16/16/1
f 18/18/1 3/2/1 19/19/1
f 20/20/1 3/2/1 21/21/1
f 19/19/1 3/2/1 13/13/1
f 21/21/1 3/2/1 22/22/1
f 22/22/1 3/2/1 11/11/1
f 17/17/1 3/2/1 23/23/1
f 15/15/1 3/2/1 24/24/1
f 23/23/1 3/2/1 25/25/1
f 24/24/1 3/2/1 26/26/1
f 25/25/1 3/2/1 27/27/1
f 26/26/1 3/2/1 28/28/1
f 27/27/1 3/2/1 29/29/1
f 28/28/1 3/2/1 18/18/1
f 29/29/1 3/2/1 20/20/1
