# Blender v2.92.0 OBJ File: 'Martini_super_potente.blend'
# www.blender.org
mtllib Oliva_piccola.mtl
o oliva_piccola
v -0.330682 4.274285 -0.101916
v -0.276474 4.252909 -0.176862
v -0.142324 4.260119 -0.088914
v -0.189628 4.281869 -0.009447
v -0.162696 4.281561 -0.308303
v -0.114262 4.328784 -0.351935
v -0.070674 4.331130 -0.323358
v -0.079784 4.286016 -0.253951
v -0.420295 4.527436 0.098587
v -0.423024 4.450541 0.074934
v -0.340112 4.454997 0.129286
v -0.376703 4.529776 0.127162
v -0.375908 4.317456 -0.030479
v -0.241757 4.324667 0.057469
v -0.218589 4.255416 -0.247980
v -0.104474 4.261551 -0.173170
v -0.399814 4.601338 0.099107
v -0.407729 4.378188 0.030461
v -0.293610 4.384322 0.105272
v -0.078032 4.392465 -0.374598
v -0.026077 4.345448 -0.047577
v -0.067404 4.371585 0.034023
v -0.032907 4.358851 -0.309929
v -0.007945 4.338753 -0.228400
v -0.268269 4.507732 0.154838
v -0.338935 4.557503 0.140594
v -0.125517 4.409991 0.098807
v -0.005589 4.334131 -0.138002
v -0.194728 4.456906 0.140437
v -0.015380 4.401368 -0.316770
v -0.148850 4.568212 0.122521
v -0.234934 4.588603 0.141819
v 0.027856 4.476297 -0.068635
v -0.010693 4.509169 0.011881
v 0.025390 4.419624 -0.241419
v -0.321410 4.600016 0.133755
v -0.071579 4.540840 0.077750
v 0.040290 4.445442 -0.155916
v 0.015641 4.552958 -0.220065
v -0.001122 4.602691 -0.144046
v -0.024797 4.442436 -0.341270
v -0.173495 4.675727 0.058372
v -0.252844 4.666719 0.095213
v -0.041157 4.642070 -0.067414
v 0.007484 4.497739 -0.288024
v -0.330826 4.641083 0.109250
v -0.100555 4.667236 0.002333
v -0.363584 4.665019 0.076445
v -0.201372 4.740894 -0.098628
v -0.259258 4.738387 -0.027511
v -0.070118 4.615617 -0.305947
v -0.101939 4.676347 -0.245012
v -0.057550 4.466371 -0.374079
v -0.315152 4.712243 0.032816
v -0.147165 4.719517 -0.173575
v -0.054828 4.543264 -0.350421
v -0.288218 4.711938 -0.266046
v -0.335523 4.733685 -0.186572
v -0.137735 4.538806 -0.404777
v -0.184237 4.609481 -0.380762
v -0.407172 4.662674 0.047868
v -0.373372 4.732256 -0.102322
v -0.236090 4.669138 -0.332956
v -0.101144 4.464027 -0.402653
v -0.398063 4.707786 -0.021540
v -0.138910 4.436304 -0.416087
v -0.209578 4.486073 -0.430324
v -0.469902 4.655052 -0.047087
v -0.444940 4.634952 0.034438
v -0.410443 4.622219 -0.309510
v -0.451770 4.648355 -0.227914
v -0.283118 4.536902 -0.415925
v -0.472258 4.659672 -0.137488
v -0.352331 4.583813 -0.374294
v -0.406269 4.452964 -0.353236
v -0.467154 4.484636 -0.287368
v -0.156437 4.393789 -0.409241
v -0.242913 4.405200 -0.417309
v -0.503236 4.574183 -0.034073
v -0.462466 4.592435 0.041279
v -0.505703 4.517506 -0.206855
v -0.328997 4.425591 -0.398012
v -0.518136 4.548361 -0.119575
v -0.147021 4.352721 -0.384741
v -0.493488 4.440845 -0.055425
v -0.485331 4.496063 0.012534
v -0.377290 4.326571 -0.277826
v -0.436689 4.351737 -0.208078
v -0.225003 4.327084 -0.370703
v -0.453050 4.551368 0.065784
v -0.476725 4.391114 -0.131441
v -0.304348 4.318075 -0.333862
vt 0.700000 0.500000
vt 0.700000 0.600000
vt 0.600000 0.600000
vt 0.600000 0.500000
vt 0.700000 0.800000
vt 0.700000 0.900000
vt 0.600000 0.900000
vt 0.600000 0.800000
vt 0.700000 0.100000
vt 0.700000 0.200000
vt 0.600000 0.200000
vt 0.600000 0.100000
vt 0.700000 0.400000
vt 0.600000 0.400000
vt 0.700000 0.700000
vt 0.600000 0.700000
vt 0.650000 0.000000
vt 0.700000 0.300000
vt 0.600000 0.300000
vt 0.650000 1.000000
vt 0.500000 0.600000
vt 0.500000 0.500000
vt 0.500000 0.900000
vt 0.500000 0.800000
vt 0.500000 0.200000
vt 0.500000 0.100000
vt 0.500000 0.400000
vt 0.500000 0.700000
vt 0.550000 0.000000
vt 0.500000 0.300000
vt 0.550000 1.000000
vt 0.450000 1.000000
vt 0.400000 0.900000
vt 0.400000 0.300000
vt 0.400000 0.200000
vt 0.400000 0.600000
vt 0.400000 0.500000
vt 0.400000 0.800000
vt 0.400000 0.100000
vt 0.400000 0.400000
vt 0.400000 0.700000
vt 0.450000 0.000000
vt 0.300000 0.700000
vt 0.300000 0.600000
vt 0.350000 1.000000
vt 0.300000 0.900000
vt 0.300000 0.300000
vt 0.300000 0.200000
vt 0.300000 0.500000
vt 0.300000 0.800000
vt 0.300000 0.100000
vt 0.300000 0.400000
vt 0.350000 0.000000
vt 0.250000 0.000000
vt 0.200000 0.100000
vt 0.200000 0.400000
vt 0.200000 0.300000
vt 0.200000 0.700000
vt 0.200000 0.600000
vt 0.250000 1.000000
vt 0.200000 0.900000
vt 0.200000 0.200000
vt 0.200000 0.500000
vt 0.200000 0.800000
vt 0.100000 0.500000
vt 0.100000 0.400000
vt 0.100000 0.800000
vt 0.100000 0.700000
vt 0.150000 0.000000
vt 0.100000 0.100000
vt 0.100000 0.300000
vt 0.100000 0.600000
vt 0.150000 1.000000
vt 0.100000 0.900000
vt 0.100000 0.200000
vt 0.000000 0.900000
vt 0.000000 0.800000
vt 0.000000 0.200000
vt 0.000000 0.100000
vt 0.000000 0.500000
vt 0.000000 0.400000
vt 0.000000 0.700000
vt 0.050000 0.000000
vt 0.000000 0.300000
vt 0.000000 0.600000
vt 0.050000 1.000000
vt 1.000000 0.500000
vt 1.000000 0.600000
vt 0.900000 0.600000
vt 0.900000 0.500000
vt 1.000000 0.800000
vt 1.000000 0.900000
vt 0.900000 0.900000
vt 0.900000 0.800000
vt 1.000000 0.100000
vt 1.000000 0.200000
vt 0.900000 0.200000
vt 0.900000 0.100000
vt 1.000000 0.400000
vt 0.900000 0.400000
vt 1.000000 0.700000
vt 0.900000 0.700000
vt 0.950000 0.000000
vt 1.000000 0.300000
vt 0.900000 0.300000
vt 0.950000 1.000000
vt 0.850000 1.000000
vt 0.800000 0.900000
vt 0.800000 0.300000
vt 0.800000 0.200000
vt 0.800000 0.600000
vt 0.800000 0.500000
vt 0.800000 0.800000
vt 0.800000 0.100000
vt 0.800000 0.400000
vt 0.800000 0.700000
vt 0.850000 0.000000
vt 0.750000 1.000000
vt 0.750000 0.000000
vn -0.3769 -0.9145 0.1472
vn -0.2343 -0.9709 -0.0501
vn 0.2356 -0.9406 0.2443
vn 0.1042 -0.8820 0.4597
vn 0.1273 -0.8755 -0.4662
vn 0.3330 -0.6799 -0.6533
vn 0.5209 -0.6617 -0.5393
vn 0.4565 -0.8478 -0.2699
vn -0.6346 -0.0519 0.7711
vn -0.6429 -0.3755 0.6676
vn -0.3261 -0.3399 0.8821
vn -0.4513 -0.0307 0.8918
vn -0.4961 -0.8010 0.3353
vn -0.0355 -0.7646 0.6435
vn -0.0662 -0.9642 -0.2568
vn 0.3558 -0.9345 -0.0009
vn -0.5279 0.3427 0.7771
vn -0.5888 -0.6249 0.5126
vn -0.1813 -0.5859 0.7899
vn 0.5279 -0.3427 -0.7771
vn 0.7112 -0.5846 0.3903
vn 0.5901 -0.5100 0.6258
vn 0.7064 -0.5118 -0.4889
vn 0.7819 -0.5952 -0.1857
vn -0.0216 -0.0736 0.9971
vn -0.2736 0.1243 0.9538
vn 0.4236 -0.3979 0.8138
vn 0.7791 -0.6161 0.1157
vn 0.2169 -0.2512 0.9433
vn 0.8043 -0.2744 -0.5271
vn 0.4331 0.2733 0.8589
vn 0.1460 0.3328 0.9316
vn 0.9555 0.0079 0.2950
vn 0.8435 0.1046 0.5268
vn 0.9494 -0.1887 -0.2512
vn -0.1757 0.3617 0.9156
vn 0.6678 0.1946 0.7184
vn 0.9953 -0.0916 0.0313
vn 0.8989 0.3829 -0.2130
vn 0.8443 0.5359 0.0067
vn 0.7692 -0.0592 -0.6362
vn 0.3617 0.7316 0.5778
vn 0.0988 0.6908 0.7163
vn 0.7336 0.6450 0.2139
vn 0.8813 0.1829 -0.4357
vn -0.2029 0.5718 0.7949
vn 0.5731 0.7119 0.4059
vn -0.3330 0.6799 0.6533
vn 0.2343 0.9709 0.0501
vn 0.0662 0.9642 0.2568
vn 0.5888 0.6249 -0.5126
vn 0.4961 0.8009 -0.3353
vn 0.6346 0.0519 -0.7711
vn -0.1273 0.8755 0.4662
vn 0.3769 0.9145 -0.1472
vn 0.6429 0.3755 -0.6676
vn -0.1042 0.8820 -0.4597
vn -0.2356 0.9406 -0.2443
vn 0.3261 0.3399 -0.8821
vn 0.1813 0.5859 -0.7899
vn -0.5209 0.6617 0.5393
vn -0.3558 0.9345 0.0009
vn 0.0355 0.7646 -0.6435
vn 0.4513 0.0307 -0.8918
vn -0.4565 0.8478 0.2699
vn 0.2735 -0.1243 -0.9538
vn 0.0216 0.0736 -0.9971
vn -0.7819 0.5952 0.1857
vn -0.7064 0.5118 0.4889
vn -0.5901 0.5100 -0.6258
vn -0.7112 0.5846 -0.3903
vn -0.2169 0.2512 -0.9433
vn -0.7791 0.6161 -0.1157
vn -0.4236 0.3979 -0.8138
vn -0.6678 -0.1946 -0.7184
vn -0.8435 -0.1046 -0.5269
vn 0.1757 -0.3617 -0.9156
vn -0.1459 -0.3328 -0.9316
vn -0.9494 0.1887 0.2511
vn -0.8043 0.2744 0.5271
vn -0.9555 -0.0079 -0.2950
vn -0.4331 -0.2733 -0.8589
vn -0.9953 0.0916 -0.0313
vn 0.2029 -0.5718 -0.7949
vn -0.8989 -0.3829 0.2130
vn -0.8813 -0.1828 0.4357
vn -0.5731 -0.7119 -0.4059
vn -0.7336 -0.6450 -0.2139
vn -0.0988 -0.6908 -0.7163
vn -0.7692 0.0592 0.6363
vn -0.8442 -0.5359 -0.0067
vn -0.3617 -0.7316 -0.5778
usemtl None.002
s 1
f 1/1/1 2/2/2 3/3/3 4/4/4
f 5/5/5 6/6/6 7/7/7 8/8/8
f 9/9/9 10/10/10 11/11/11 12/12/12
f 13/13/13 1/1/1 4/4/4 14/14/14
f 15/15/15 5/5/5 8/8/8 16/16/16
f 17/17/17 9/9/9 12/12/12
f 18/18/18 13/13/13 14/14/14 19/19/19
f 2/2/2 15/15/15 16/16/16 3/3/3
f 6/6/6 20/20/20 7/7/7
f 10/10/10 18/18/18 19/19/19 11/11/11
f 4/4/4 3/3/3 21/21/21 22/22/22
f 8/8/8 7/7/7 23/23/23 24/24/24
f 12/12/12 11/11/11 25/25/25 26/26/26
f 14/14/14 4/4/4 22/22/22 27/27/27
f 16/16/16 8/8/8 24/24/24 28/28/28
f 17/29/17 12/12/12 26/26/26
f 19/19/19 14/14/14 27/27/27 29/30/29
f 3/3/3 16/16/16 28/28/28 21/21/21
f 7/7/7 20/31/20 23/23/23
f 11/11/11 19/19/19 29/30/29 25/25/25
f 23/23/23 20/32/20 30/33/30
f 25/25/25 29/30/29 31/34/31 32/35/32
f 22/22/22 21/21/21 33/36/33 34/37/34
f 24/24/24 23/23/23 30/33/30 35/38/35
f 26/26/26 25/25/25 32/35/32 36/39/36
f 27/27/27 22/22/22 34/37/34 37/40/37
f 28/28/28 24/24/24 35/38/35 38/41/38
f 17/42/17 26/26/26 36/39/36
f 29/30/29 27/27/27 37/40/37 31/34/31
f 21/21/21 28/28/28 38/41/38 33/36/33
f 33/36/33 38/41/38 39/43/39 40/44/40
f 30/33/30 20/45/20 41/46/41
f 32/35/32 31/34/31 42/47/42 43/48/43
f 34/37/34 33/36/33 40/44/40 44/49/44
f 35/38/35 30/33/30 41/46/41 45/50/45
f 36/39/36 32/35/32 43/48/43 46/51/46
f 37/40/37 34/37/34 44/49/44 47/52/47
f 38/41/38 35/38/35 45/50/45 39/43/39
f 17/53/17 36/39/36 46/51/46
f 31/34/31 37/40/37 47/52/47 42/47/42
f 17/54/17 46/51/46 48/55/48
f 42/47/42 47/52/47 49/56/49 50/57/50
f 40/44/40 39/43/39 51/58/51 52/59/52
f 41/46/41 20/60/20 53/61/53
f 43/48/43 42/47/42 50/57/50 54/62/54
f 44/49/44 40/44/40 52/59/52 55/63/55
f 45/50/45 41/46/41 53/61/53 56/64/56
f 46/51/46 43/48/43 54/62/54 48/55/48
f 47/52/47 44/49/44 55/63/55 49/56/49
f 39/43/39 45/50/45 56/64/56 51/58/51
f 49/56/49 55/63/55 57/65/57 58/66/58
f 51/58/51 56/64/56 59/67/59 60/68/60
f 17/69/17 48/55/48 61/70/61
f 50/57/50 49/56/49 58/66/58 62/71/62
f 52/59/52 51/58/51 60/68/60 63/72/63
f 53/61/53 20/73/20 64/74/64
f 54/62/54 50/57/50 62/71/62 65/75/65
f 55/63/55 52/59/52 63/72/63 57/65/57
f 56/64/56 53/61/53 64/74/64 59/67/59
f 48/55/48 54/62/54 65/75/65 61/70/61
f 59/67/59 64/74/64 66/76/66 67/77/67
f 61/70/61 65/75/65 68/78/68 69/79/69
f 58/66/58 57/65/57 70/80/70 71/81/71
f 60/68/60 59/67/59 67/77/67 72/82/72
f 17/83/17 61/70/61 69/79/69
f 62/71/62 58/66/58 71/81/71 73/84/73
f 63/72/63 60/68/60 72/82/72 74/85/74
f 64/74/64 20/86/20 66/76/66
f 65/75/65 62/71/62 73/84/73 68/78/68
f 57/65/57 63/72/63 74/85/74 70/80/70
f 70/87/70 74/88/74 75/89/75 76/90/76
f 67/91/67 66/92/66 77/93/77 78/94/78
f 69/95/69 68/96/68 79/97/79 80/98/80
f 71/99/71 70/87/70 76/90/76 81/100/81
f 72/101/72 67/91/67 78/94/78 82/102/82
f 17/103/17 69/95/69 80/98/80
f 73/104/73 71/99/71 81/100/81 83/105/83
f 74/88/74 72/101/72 82/102/82 75/89/75
f 66/92/66 20/106/20 77/93/77
f 68/96/68 73/104/73 83/105/83 79/97/79
f 77/93/77 20/107/20 84/108/84
f 79/97/79 83/105/83 85/109/85 86/110/86
f 76/90/76 75/89/75 87/111/87 88/112/88
f 78/94/78 77/93/77 84/108/84 89/113/89
f 80/98/80 79/97/79 86/110/86 90/114/90
f 81/100/81 76/90/76 88/112/88 91/115/91
f 82/102/82 78/94/78 89/113/89 92/116/92
f 17/117/17 80/98/80 90/114/90
f 83/105/83 81/100/81 91/115/91 85/109/85
f 75/89/75 82/102/82 92/116/92 87/111/87
f 85/109/85 91/115/91 13/13/13 18/18/18
f 87/111/87 92/116/92 15/15/15 2/2/2
f 84/108/84 20/118/20 6/6/6
f 86/110/86 85/109/85 18/18/18 10/10/10
f 88/112/88 87/111/87 2/2/2 1/1/1
f 89/113/89 84/108/84 6/6/6 5/5/5
f 90/114/90 86/110/86 10/10/10 9/9/9
f 91/115/91 88/112/88 1/1/1 13/13/13
f 92/116/92 89/113/89 5/5/5 15/15/15
f 17/119/17 90/114/90 9/9/9
