# Blender v2.92.0 OBJ File: 'Martini_super_potente.blend'
# www.blender.org
mtllib stelo_magico.mtl
o stelo
v 0.806108 0.000002 1.010827
v 1.010828 0.000002 0.806107
v -1.010828 0.000003 -0.806108
v -1.164860 0.000003 -0.560967
v 1.164860 0.000002 0.560966
v -1.260481 0.000003 -0.287697
v 1.260481 0.000002 0.287695
v -1.292897 0.000002 0.000000
v 1.292897 0.000002 -0.000001
v -1.260481 0.000002 0.287697
v 1.260481 0.000003 -0.287698
v -1.164860 0.000002 0.560967
v 1.164858 0.000003 -0.560968
v -1.010828 0.000002 0.806108
v 1.010827 0.000003 -0.806109
v -0.806108 0.000002 1.010828
v 0.806107 0.000003 -1.010828
v -0.560967 0.000002 1.164860
v 0.560965 0.000003 -1.164861
v -0.287697 0.000002 1.260481
v 0.287694 0.000003 -1.260481
v 0.000000 0.000002 1.292897
v 0.000000 0.000003 -1.292896
v -0.287697 0.000003 -1.260481
v 0.287697 0.000002 1.260481
v -0.560967 0.000003 -1.164860
v 0.560967 0.000002 1.164860
v -0.806108 0.000003 -1.010826
v -1.010828 0.059834 -0.806108
v -0.065675 0.348610 -0.052374
v -0.052374 0.348610 -0.065675
v -0.806108 0.059834 -1.010826
v 0.806108 0.059833 1.010827
v 0.052374 0.348609 0.065675
v 0.036447 0.348609 0.075682
v 0.560967 0.059833 1.164860
v -0.036447 0.348610 -0.075682
v -0.560967 0.059834 -1.164860
v 0.018692 0.348609 0.081895
v 0.287697 0.059833 1.260481
v -0.018692 0.348610 -0.081895
v -0.287697 0.059834 -1.260481
v -0.000000 0.348609 0.084001
v 0.000000 0.059833 1.292897
v 0.000000 0.059834 -1.292896
v -0.000000 0.348610 -0.084001
v 0.018692 0.348610 -0.081895
v 0.287694 0.059834 -1.260481
v -0.018692 0.348609 0.081895
v -0.287697 0.059833 1.260481
v 0.036447 0.348610 -0.075682
v 0.560965 0.059834 -1.164861
v -0.036447 0.348609 0.075682
v -0.560967 0.059833 1.164860
v 0.052374 0.348610 -0.065675
v 0.806107 0.059834 -1.010828
v -0.052374 0.348609 0.065675
v -0.806108 0.059833 1.010828
v 0.065675 0.348610 -0.052374
v 1.010827 0.059834 -0.806109
v -0.065675 0.348609 0.052374
v -1.010828 0.059833 0.806108
v 0.075682 0.348610 -0.036447
v 1.164858 0.059833 -0.560968
v -0.075682 0.348609 0.036447
v -1.164860 0.059833 0.560967
v 0.081895 0.348610 -0.018692
v 1.260481 0.059833 -0.287698
v -0.081895 0.348609 0.018692
v -1.260481 0.059833 0.287697
v 0.084001 0.348609 -0.000000
v 1.292897 0.059833 -0.000001
v -0.084001 0.348609 -0.000000
v -1.292897 0.059833 0.000000
v 0.081895 0.348609 0.018692
v 1.260481 0.059833 0.287695
v -0.081895 0.348610 -0.018692
v -1.260481 0.059833 -0.287697
v 0.075682 0.348609 0.036447
v 1.164860 0.059833 0.560966
v -0.075682 0.348610 -0.036447
v -1.164860 0.059833 -0.560967
v 0.065675 0.348609 0.052374
v 1.010828 0.059833 0.806107
v -0.132865 3.579836 -0.105957
v -0.105956 3.579836 -0.132865
v 0.105956 3.579836 0.132865
v 0.073734 3.579836 0.153111
v -0.073735 3.579836 -0.153111
v 0.037815 3.579836 0.165680
v -0.037816 3.579836 -0.165680
v -0.000000 3.579836 0.169940
v -0.000000 3.579836 -0.169941
v 0.037815 3.579836 -0.165680
v -0.037816 3.579836 0.165680
v 0.073734 3.579836 -0.153112
v -0.073735 3.579836 0.153111
v 0.105956 3.579836 -0.132865
v -0.105956 3.579836 0.132865
v 0.132865 3.579836 -0.105957
v -0.132865 3.579836 0.105956
v 0.153111 3.579836 -0.073735
v -0.153111 3.579836 0.073734
v 0.165680 3.579836 -0.037816
v -0.165680 3.579836 0.037815
v 0.169940 3.579836 -0.000000
v -0.169941 3.579836 -0.000000
v 0.165680 3.579836 0.037815
v -0.165680 3.579836 -0.037816
v 0.153111 3.579836 0.073734
v -0.153111 3.579836 -0.073735
v 0.132865 3.579836 0.105956
v 0.806108 0.059833 1.010827
v 1.010828 0.059833 0.806107
v -1.010828 0.059834 -0.806108
v -1.164860 0.059833 -0.560967
v 1.164860 0.059833 0.560966
v -1.260481 0.059833 -0.287697
v 1.260481 0.059833 0.287695
v -1.292897 0.059833 0.000000
v 1.292897 0.059833 -0.000001
v -1.260481 0.059833 0.287697
v 1.260481 0.059833 -0.287698
v -1.164860 0.059833 0.560967
v 1.164858 0.059833 -0.560968
v -1.010828 0.059833 0.806108
v 1.010827 0.059834 -0.806109
v -0.806108 0.059833 1.010828
v 0.806107 0.059834 -1.010828
v -0.560967 0.059833 1.164860
v 0.560965 0.059834 -1.164861
v -0.287697 0.059833 1.260481
v 0.287694 0.059834 -1.260481
v 0.000000 0.059833 1.292897
v 0.000000 0.059834 -1.292896
v -0.287697 0.059834 -1.260481
v 0.287697 0.059833 1.260481
v -0.560967 0.059834 -1.164860
v 0.560967 0.059833 1.164860
v -0.806108 0.059834 -1.010826
vt 0.000000 0.000000
vt 0.000000 0.000000
vt 0.000000 0.000000
vt 0.000000 0.000000
vt 0.000000 0.000000
vt 0.000000 0.000000
vt 0.000000 0.000000
vt 0.000000 0.000000
vt 0.000000 0.000000
vt 0.000000 0.000000
vt 0.000000 0.000000
vt 0.000000 0.000000
vt 0.000000 0.000000
vt 0.000000 0.000000
vt 0.000000 0.000000
vt 0.000000 0.000000
vt 0.000000 0.000000
vt 0.000000 0.000000
vt 0.000000 0.000000
vt 0.000000 0.000000
vt 0.000000 0.000000
vt 0.000000 0.000000
vt 0.000000 0.000000
vt 0.000000 0.000000
vt 0.000000 0.000000
vt 0.000000 0.000000
vt 0.000000 0.000000
vt 0.000000 0.000000
vt 0.000000 0.000000
vt 0.000000 0.000000
vt 0.000000 0.000000
vt 0.000000 0.000000
vt 0.000000 0.000000
vt 0.000000 0.000000
vt 0.000000 0.000000
vt 0.000000 0.000000
vt 0.000000 0.000000
vt 0.000000 0.000000
vt 0.000000 0.000000
vt 0.000000 0.000000
vt 0.000000 0.000000
vt 0.000000 0.000000
vt 0.000000 0.000000
vt 0.000000 0.000000
vt 0.000000 0.000000
vt 0.000000 0.000000
vt 0.000000 0.000000
vt 0.000000 0.000000
vt 0.000000 0.000000
vt 0.000000 0.000000
vt 0.000000 0.000000
vt 0.000000 0.000000
vt 0.000000 0.000000
vt 0.000000 0.000000
vt 0.000000 0.000000
vt 0.000000 0.000000
vt 0.000000 0.000000
vt 0.000000 0.000000
vt 0.000000 0.000000
vt 0.000000 0.000000
vt 0.000000 0.000000
vt 0.000000 0.000000
vt 0.000000 0.000000
vt 0.000000 0.000000
vt 0.000000 0.000000
vt 0.000000 0.000000
vt 0.000000 0.000000
vt 0.000000 0.000000
vt 0.000000 0.000000
vt 0.000000 0.000000
vt 0.000000 0.000000
vt 0.000000 0.000000
vt 0.000000 0.000000
vt 0.000000 0.000000
vt 0.000000 0.000000
vt 0.000000 0.000000
vt 0.000000 0.000000
vt 0.000000 0.000000
vt 0.000000 0.000000
vt 0.000000 0.000000
vt 0.000000 0.000000
vt 0.000000 0.000000
vt 0.000000 0.000000
vt 0.000000 0.000000
vt 0.000000 0.000000
vt 0.000000 0.000000
vt 0.000000 0.000000
vt 0.000000 0.000000
vt 0.000000 0.000000
vt 0.000000 0.000000
vt 0.000000 0.000000
vt 0.000000 0.000000
vt 0.000000 0.000000
vt 0.000000 0.000000
vt 0.000000 0.000000
vt 0.000000 0.000000
vt 0.000000 0.000000
vt 0.000000 0.000000
vt 0.000000 0.000000
vt 0.000000 0.000000
vt 0.000000 0.000000
vt 0.000000 0.000000
vt 0.000000 0.000000
vt 0.000000 0.000000
vt 0.000000 0.000000
vt 0.000000 0.000000
vt 0.000000 0.000000
vt 0.000000 0.000000
vt 0.000000 0.000000
vt 0.000000 0.000000
vt 0.000000 0.000000
vt 0.000000 0.000000
vt 0.000000 0.000000
vt 0.000000 0.000000
vt 0.000000 0.000000
vt 0.000000 0.000000
vt 0.000000 0.000000
vt 0.000000 0.000000
vt 0.000000 0.000000
vt 0.000000 0.000000
vt 0.000000 0.000000
vt 0.000000 0.000000
vt 0.000000 0.000000
vt 0.000000 0.000000
vt 0.000000 0.000000
vt 0.000000 0.000000
vt 0.000000 0.000000
vt 0.000000 0.000000
vt 0.000000 0.000000
vt 0.000000 0.000000
vt 0.000000 0.000000
vt 0.000000 0.000000
vt 0.000000 0.000000
vt 0.000000 0.000000
vt 0.000000 0.000000
vt 0.000000 0.000000
vt 0.000000 0.000000
vt 0.000000 0.000000
vt 0.000000 0.000000
vt 0.000000 0.000000
vn -0.1816 0.9726 -0.1449
vn -0.1449 0.9726 -0.1817
vn 0.1449 0.9726 0.1816
vn 0.1008 0.9726 0.2093
vn -0.1008 0.9726 -0.2093
vn 0.0517 0.9726 0.2265
vn -0.0517 0.9726 -0.2265
vn -0.0000 0.9726 0.2323
vn 0.0000 0.9726 -0.2323
vn 0.0517 0.9726 -0.2265
vn -0.0517 0.9726 0.2265
vn 0.1008 0.9726 -0.2093
vn -0.1008 0.9726 0.2093
vn 0.1449 0.9726 -0.1817
vn -0.1449 0.9726 0.1817
vn 0.1816 0.9726 -0.1449
vn -0.1816 0.9726 0.1449
vn 0.2093 0.9726 -0.1008
vn -0.2093 0.9726 0.1008
vn 0.2265 0.9726 -0.0517
vn -0.2265 0.9726 0.0517
vn 0.2323 0.9726 0.0000
vn -0.2323 0.9726 0.0000
vn 0.2265 0.9726 0.0517
vn -0.2265 0.9726 -0.0517
vn 0.2093 0.9726 0.1008
vn -0.2093 0.9726 -0.1008
vn 0.1816 0.9726 0.1449
vn -0.9746 -0.0266 -0.2224
vn -0.9996 -0.0266 0.0000
vn -0.4337 -0.0266 -0.9006
vn -0.6233 -0.0266 -0.7816
vn 0.4337 -0.0266 -0.9007
vn 0.2224 -0.0266 -0.9746
vn 0.9007 -0.0266 0.4337
vn 0.9746 -0.0266 0.2224
vn 0.2224 -0.0266 0.9746
vn 0.4337 -0.0266 0.9006
vn -0.4337 -0.0266 0.9007
vn -0.2224 -0.0266 0.9746
vn 0.9746 -0.0266 -0.2224
vn 0.9006 -0.0266 -0.4337
vn -0.9007 -0.0266 -0.4337
vn 0.0000 -0.0266 -0.9996
vn -0.2224 -0.0266 -0.9746
vn 0.6233 -0.0266 -0.7816
vn -0.9746 -0.0266 0.2224
vn -0.9007 -0.0266 0.4337
vn 0.7816 -0.0266 0.6233
vn -0.0000 -0.0266 0.9996
vn -0.6233 -0.0266 0.7816
vn 0.9996 -0.0266 0.0000
vn -0.7816 -0.0266 0.6233
vn 0.6233 -0.0266 0.7816
vn -0.7816 -0.0266 -0.6233
vn 0.7816 -0.0266 -0.6233
vn 0.6235 0.0000 -0.7818
vn 0.7818 0.0000 -0.6235
vn -0.9010 0.0000 -0.4339
vn -0.7818 0.0000 -0.6235
vn -0.4339 0.0000 0.9010
vn -0.6235 0.0000 0.7818
vn 0.9010 0.0000 0.4339
vn 0.7818 0.0000 0.6235
vn -0.6235 0.0000 -0.7818
vn -0.9749 -0.0000 -0.2225
vn -0.2225 0.0000 0.9749
vn 0.9749 0.0000 0.2225
vn 0.6235 0.0000 0.7818
vn 0.4339 0.0000 0.9010
vn 0.2225 0.0000 -0.9749
vn 0.4339 0.0000 -0.9010
vn -1.0000 -0.0000 0.0000
vn -0.0000 0.0000 1.0000
vn -0.4339 0.0000 -0.9010
vn 1.0000 0.0000 0.0000
vn -0.9749 0.0000 0.2225
vn -0.2225 0.0000 -0.9749
vn 0.0000 0.0000 -1.0000
vn 0.9749 -0.0000 -0.2225
vn 0.2225 0.0000 0.9749
vn -0.9010 0.0000 0.4339
vn 0.9010 0.0000 -0.4339
vn -0.7818 0.0000 0.6235
usemtl None.001
s 1
f 29/1/1 30/2/1 31/3/2 32/4/2
f 33/5/3 34/6/3 35/7/4 36/8/4
f 32/4/2 31/3/2 37/9/5 38/10/5
f 36/8/4 35/7/4 39/11/6 40/12/6
f 38/10/5 37/9/5 41/13/7 42/14/7
f 40/12/6 39/11/6 43/15/8 44/16/8
f 45/17/9 46/18/9 47/19/10 48/20/10
f 42/14/7 41/13/7 46/18/9 45/17/9
f 44/16/8 43/15/8 49/21/11 50/22/11
f 48/20/10 47/19/10 51/23/12 52/24/12
f 50/22/11 49/21/11 53/25/13 54/26/13
f 52/24/12 51/23/12 55/27/14 56/28/14
f 54/26/13 53/25/13 57/29/15 58/30/15
f 56/28/14 55/27/14 59/31/16 60/32/16
f 58/30/15 57/29/15 61/33/17 62/34/17
f 60/32/16 59/31/16 63/35/18 64/36/18
f 62/34/17 61/33/17 65/37/19 66/38/19
f 64/36/18 63/35/18 67/39/20 68/40/20
f 66/38/19 65/37/19 69/41/21 70/42/21
f 68/40/20 67/39/20 71/43/22 72/44/22
f 70/42/21 69/41/21 73/45/23 74/46/23
f 72/44/22 71/43/22 75/47/24 76/48/24
f 74/46/23 73/45/23 77/49/25 78/50/25
f 76/48/24 75/47/24 79/51/26 80/52/26
f 78/50/25 77/49/25 81/53/27 82/54/27
f 80/52/26 79/51/26 83/55/28 84/56/28
f 82/54/27 81/53/27 30/2/1 29/1/1
f 84/56/28 83/55/28 34/6/3 33/5/3
f 77/49/29 73/45/30 107/57/30 109/58/29
f 37/9/31 31/3/32 86/59/32 89/60/31
f 51/23/33 47/19/34 94/61/34 96/62/33
f 79/51/35 75/47/36 108/63/36 110/64/35
f 39/11/37 35/7/38 88/65/38 90/66/37
f 53/25/39 49/21/40 95/67/40 97/68/39
f 67/39/41 63/35/42 102/69/42 104/70/41
f 81/53/43 77/49/29 109/58/29 111/71/43
f 46/18/44 41/13/45 91/72/45 93/73/44
f 41/13/45 37/9/31 89/60/31 91/72/45
f 55/27/46 51/23/33 96/62/33 98/74/46
f 69/41/47 65/37/48 103/75/48 105/76/47
f 83/55/49 79/51/35 110/64/35 112/77/49
f 43/15/50 39/11/37 90/66/37 92/78/50
f 57/29/51 53/25/39 97/68/39 99/79/51
f 71/43/52 67/39/41 104/70/41 106/80/52
f 61/33/53 57/29/51 99/79/51 101/81/53
f 34/6/54 83/55/49 112/77/49 87/82/54
f 31/3/32 30/2/55 85/83/55 86/59/32
f 59/31/56 55/27/46 98/74/46 100/84/56
f 73/45/30 69/41/47 105/76/47 107/57/30
f 47/19/34 46/18/44 93/73/44 94/61/34
f 30/2/55 81/53/43 111/71/43 85/83/55
f 75/47/36 71/43/52 106/80/52 108/63/36
f 35/7/38 34/6/54 87/82/54 88/65/38
f 49/21/40 43/15/50 92/78/50 95/67/40
f 65/37/48 61/33/53 101/81/53 103/75/48
f 63/35/42 59/31/56 100/84/56 102/69/42
f 17/85/57 129/86/57 127/87/58 15/88/58
f 4/89/59 116/90/59 115/91/60 3/92/60
f 18/93/61 130/94/61 128/95/62 16/96/62
f 5/97/63 117/98/63 114/99/64 2/100/64
f 3/92/60 115/91/60 140/101/65 28/102/65
f 6/103/66 118/104/66 116/90/59 4/89/59
f 20/105/67 132/106/67 130/94/61 18/93/61
f 7/107/68 119/108/68 117/98/63 5/97/63
f 1/109/69 113/110/69 139/111/70 27/112/70
f 21/113/71 133/114/71 131/115/72 19/116/72
f 8/117/73 120/118/73 118/104/66 6/103/66
f 22/119/74 134/120/74 132/106/67 20/105/67
f 28/102/65 140/101/65 138/121/75 26/122/75
f 9/123/76 121/124/76 119/108/68 7/107/68
f 10/125/77 122/126/77 120/118/73 8/117/73
f 24/127/78 136/128/78 135/129/79 23/130/79
f 11/131/80 123/132/80 121/124/76 9/123/76
f 25/133/81 137/134/81 134/120/74 22/119/74
f 19/116/72 131/115/72 129/86/57 17/85/57
f 12/135/82 124/136/82 122/126/77 10/125/77
f 26/122/75 138/121/75 136/128/78 24/127/78
f 13/137/83 125/138/83 123/132/80 11/131/80
f 27/112/70 139/111/70 137/134/81 25/133/81
f 14/139/84 126/140/84 124/136/82 12/135/82
f 23/130/79 135/129/79 133/114/71 21/113/71
f 15/88/58 127/87/58 125/138/83 13/137/83
f 2/100/64 114/99/64 113/110/69 1/109/69
f 16/96/62 128/95/62 126/140/84 14/139/84
