# Blender v2.92.0 OBJ File: 'Cicchetto_2.blend'
# www.blender.org
mtllib BICCHIERE_superiore.mtl
o BICCHIERE__parete_superiore
v 0.507040 1.791395 0.404350
v 0.517941 1.904748 0.413044
v 0.413044 1.904748 0.517941
v 0.404351 1.791395 0.507039
v -0.584303 1.791395 -0.281385
v -0.596866 1.904748 -0.287435
v -0.517941 1.904748 -0.413043
v -0.507039 1.791395 -0.404350
v 0.584304 1.791395 0.281385
v 0.596866 1.904748 0.287436
v -0.632268 1.791395 -0.144311
v -0.645861 1.904748 -0.147413
v 0.632268 1.791395 0.144310
v 0.645861 1.904748 0.147414
v -0.648528 1.791395 0.000000
v -0.662471 1.904748 0.000001
v 0.648528 1.791395 -0.000000
v 0.662471 1.904748 -0.000000
v -0.632268 1.791395 0.144311
v -0.645861 1.904748 0.147414
v 0.632268 1.791395 -0.144312
v 0.645861 1.904748 -0.147414
v -0.584303 1.791395 0.281385
v -0.596866 1.904748 0.287436
v 0.584303 1.791395 -0.281386
v 0.596865 1.904748 -0.287436
v -0.507039 1.791395 0.404350
v -0.517941 1.904748 0.413045
v 0.507039 1.791395 -0.404351
v 0.517940 1.904748 -0.413044
v -0.404351 1.791395 0.507040
v -0.413044 1.904748 0.517941
v 0.404350 1.791395 -0.507040
v 0.413043 1.904748 -0.517940
v -0.281386 1.791395 0.584303
v -0.287435 1.904748 0.596866
v 0.281385 1.791395 -0.584304
v 0.287435 1.904748 -0.596866
v -0.144311 1.791395 0.632268
v -0.147414 1.904748 0.645861
v 0.144310 1.791395 -0.632268
v 0.147412 1.904748 -0.645862
v -0.000000 1.791395 0.648528
v -0.000000 1.904748 0.662471
v -0.144311 1.791395 -0.632268
v -0.147414 1.904748 -0.645862
v -0.000000 1.904748 -0.662471
v -0.000000 1.791395 -0.648528
v 0.144311 1.791395 0.632268
v 0.147414 1.904748 0.645861
v -0.281386 1.791395 -0.584302
v -0.287435 1.904748 -0.596866
v 0.281386 1.791395 0.584303
v 0.287436 1.904748 0.596866
v -0.404351 1.791395 -0.507039
v -0.413044 1.904748 -0.517940
vt 0.000000 0.000000
vt 0.000000 0.000000
vt 0.000000 0.000000
vt 0.000000 0.000000
vt 0.000000 0.000000
vt 0.000000 0.000000
vt 0.000000 0.000000
vt 0.000000 0.000000
vt 0.000000 0.000000
vt 0.000000 0.000000
vt 0.000000 0.000000
vt 0.000000 0.000000
vt 0.000000 0.000000
vt 0.000000 0.000000
vt 0.000000 0.000000
vt 0.000000 0.000000
vt 0.000000 0.000000
vt 0.000000 0.000000
vt 0.000000 0.000000
vt 0.000000 0.000000
vt 0.000000 0.000000
vt 0.000000 0.000000
vt 0.000000 0.000000
vt 0.000000 0.000000
vt 0.000000 0.000000
vt 0.000000 0.000000
vt 0.000000 0.000000
vt 0.000000 0.000000
vt 0.000000 0.000000
vt 0.000000 0.000000
vt 0.000000 0.000000
vt 0.000000 0.000000
vt 0.000000 0.000000
vt 0.000000 0.000000
vt 0.000000 0.000000
vt 0.000000 0.000000
vt 0.000000 0.000000
vt 0.000000 0.000000
vt 0.000000 0.000000
vt 0.000000 0.000000
vt 0.000000 0.000000
vt 0.000000 0.000000
vt 0.000000 0.000000
vt 0.000000 0.000000
vt 0.000000 0.000000
vt 0.000000 0.000000
vt 0.000000 0.000000
vt 0.000000 0.000000
vt 0.000000 0.000000
vt 0.000000 0.000000
vt 0.000000 0.000000
vt 0.000000 0.000000
vt 0.000000 0.000000
vt 0.000000 0.000000
vt 0.000000 0.000000
vt 0.000000 0.000000
vn 0.7760 -0.1221 0.6188
vn 0.6188 -0.1221 0.7760
vn -0.8942 -0.1221 -0.4306
vn -0.7760 -0.1221 -0.6188
vn 0.8942 -0.1221 0.4306
vn -0.9676 -0.1221 -0.2209
vn 0.9676 -0.1221 0.2209
vn -0.9925 -0.1221 -0.0000
vn 0.9925 -0.1221 -0.0000
vn -0.9676 -0.1221 0.2209
vn 0.9676 -0.1221 -0.2209
vn -0.8942 -0.1221 0.4306
vn 0.8942 -0.1221 -0.4306
vn -0.7760 -0.1221 0.6188
vn 0.7760 -0.1221 -0.6188
vn -0.6188 -0.1221 0.7760
vn 0.6188 -0.1221 -0.7760
vn -0.4306 -0.1221 0.8942
vn 0.4306 -0.1221 -0.8942
vn -0.2209 -0.1221 0.9676
vn 0.2209 -0.1221 -0.9676
vn -0.0000 -0.1221 0.9925
vn -0.2209 -0.1221 -0.9676
vn 0.0000 -0.1221 -0.9925
vn 0.2209 -0.1221 0.9676
vn -0.4306 -0.1221 -0.8942
vn 0.4306 -0.1221 0.8942
vn -0.6188 -0.1221 -0.7760
usemtl None.002
s 1
f 1/1/1 2/2/1 3/3/2 4/4/2
f 5/5/3 6/6/3 7/7/4 8/8/4
f 9/9/5 10/10/5 2/2/1 1/1/1
f 11/11/6 12/12/6 6/6/3 5/5/3
f 13/13/7 14/14/7 10/10/5 9/9/5
f 15/15/8 16/16/8 12/12/6 11/11/6
f 17/17/9 18/18/9 14/14/7 13/13/7
f 19/19/10 20/20/10 16/16/8 15/15/8
f 21/21/11 22/22/11 18/18/9 17/17/9
f 23/23/12 24/24/12 20/20/10 19/19/10
f 25/25/13 26/26/13 22/22/11 21/21/11
f 27/27/14 28/28/14 24/24/12 23/23/12
f 29/29/15 30/30/15 26/26/13 25/25/13
f 31/31/16 32/32/16 28/28/14 27/27/14
f 33/33/17 34/34/17 30/30/15 29/29/15
f 35/35/18 36/36/18 32/32/16 31/31/16
f 37/37/19 38/38/19 34/34/17 33/33/17
f 39/39/20 40/40/20 36/36/18 35/35/18
f 41/41/21 42/42/21 38/38/19 37/37/19
f 43/43/22 44/44/22 40/40/20 39/39/20
f 45/45/23 46/46/23 47/47/24 48/48/24
f 48/48/24 47/47/24 42/42/21 41/41/21
f 49/49/25 50/50/25 44/44/22 43/43/22
f 51/51/26 52/52/26 46/46/23 45/45/23
f 53/53/27 54/54/27 50/50/25 49/49/25
f 55/55/28 56/56/28 52/52/26 51/51/26
f 4/4/2 3/3/2 54/54/27 53/53/27
f 8/8/4 7/7/4 56/56/28 55/55/28
o ARIA
v 0.481688 1.791395 0.384133
v 0.384133 1.791395 0.481688
v 0.392392 1.904748 0.492044
v 0.492044 1.904748 0.392392
v -0.555088 1.791395 -0.267317
v -0.481688 1.791395 -0.384133
v -0.492044 1.904748 -0.392391
v -0.567022 1.904748 -0.273063
v 0.555088 1.791395 0.267316
v 0.567022 1.904748 0.273064
v -0.600654 1.791395 -0.137096
v -0.613568 1.904748 -0.140042
v 0.600655 1.791395 0.137095
v 0.613568 1.904748 0.140043
v -0.616102 1.791395 0.000000
v -0.629347 1.904748 0.000001
v 0.616102 1.791395 -0.000000
v 0.629347 1.904748 0.000000
v -0.600654 1.791395 0.137095
v -0.613568 1.904748 0.140043
v 0.600654 1.791395 -0.137096
v 0.613568 1.904748 -0.140043
v -0.555088 1.791395 0.267316
v -0.567022 1.904748 0.273064
v 0.555088 1.791395 -0.267317
v 0.567022 1.904748 -0.273064
v -0.481688 1.791395 0.384133
v -0.492044 1.904748 0.392392
v 0.481687 1.791395 -0.384133
v 0.492043 1.904748 -0.392392
v -0.384133 1.791395 0.481688
v -0.392391 1.904748 0.492044
v 0.384133 1.791395 -0.481688
v 0.392391 1.904748 -0.492043
v -0.267316 1.791395 0.555088
v -0.273063 1.904748 0.567023
v 0.267316 1.791395 -0.555089
v 0.273063 1.904748 -0.567022
v -0.137095 1.791395 0.600654
v -0.140043 1.904748 0.613569
v 0.137095 1.791395 -0.600654
v 0.140042 1.904748 -0.613568
v -0.000000 1.791395 0.616102
v -0.000000 1.904748 0.629348
v -0.137095 1.791395 -0.600654
v -0.000000 1.791395 -0.616101
v -0.000000 1.904748 -0.629347
v -0.140043 1.904748 -0.613568
v 0.137096 1.791395 0.600654
v 0.140043 1.904748 0.613569
v -0.267316 1.791395 -0.555088
v -0.273064 1.904748 -0.567022
v 0.267317 1.791395 0.555088
v 0.273064 1.904748 0.567023
v -0.384133 1.791395 -0.481687
v -0.392392 1.904748 -0.492043
vt 0.000000 0.000000
vt 0.000000 0.000000
vt 0.000000 0.000000
vt 0.000000 0.000000
vt 0.000000 0.000000
vt 0.000000 0.000000
vt 0.000000 0.000000
vt 0.000000 0.000000
vt 0.000000 0.000000
vt 0.000000 0.000000
vt 0.000000 0.000000
vt 0.000000 0.000000
vt 0.000000 0.000000
vt 0.000000 0.000000
vt 0.000000 0.000000
vt 0.000000 0.000000
vt 0.000000 0.000000
vt 0.000000 0.000000
vt 0.000000 0.000000
vt 0.000000 0.000000
vt 0.000000 0.000000
vt 0.000000 0.000000
vt 0.000000 0.000000
vt 0.000000 0.000000
vt 0.000000 0.000000
vt 0.000000 0.000000
vt 0.000000 0.000000
vt 0.000000 0.000000
vt 0.000000 0.000000
vt 0.000000 0.000000
vt 0.000000 0.000000
vt 0.000000 0.000000
vt 0.000000 0.000000
vt 0.000000 0.000000
vt 0.000000 0.000000
vt 0.000000 0.000000
vt 0.000000 0.000000
vt 0.000000 0.000000
vt 0.000000 0.000000
vt 0.000000 0.000000
vt 0.000000 0.000000
vt 0.000000 0.000000
vt 0.000000 0.000000
vt 0.000000 0.000000
vt 0.000000 0.000000
vt 0.000000 0.000000
vt 0.000000 0.000000
vt 0.000000 0.000000
vt 0.000000 0.000000
vt 0.000000 0.000000
vt 0.000000 0.000000
vt 0.000000 0.000000
vt 0.000000 0.000000
vt 0.000000 0.000000
vt 0.000000 0.000000
vt 0.000000 0.000000
vn -0.7765 0.1161 -0.6193
vn -0.6193 0.1161 -0.7765
vn 0.8949 0.1161 0.4310
vn 0.7765 0.1161 0.6193
vn -0.8949 0.1161 -0.4310
vn 0.9683 0.1161 0.2210
vn -0.9683 0.1161 -0.2210
vn 0.9932 0.1161 0.0000
vn -0.9932 0.1161 0.0000
vn 0.9683 0.1161 -0.2210
vn -0.9683 0.1161 0.2210
vn 0.8949 0.1161 -0.4310
vn -0.8949 0.1161 0.4310
vn 0.7765 0.1161 -0.6193
vn -0.7765 0.1161 0.6193
vn 0.6193 0.1161 -0.7765
vn -0.6193 0.1161 0.7765
vn 0.4310 0.1161 -0.8949
vn 0.4309 0.1161 -0.8949
vn -0.4309 0.1161 0.8949
vn 0.2210 0.1161 -0.9683
vn -0.2210 0.1161 0.9683
vn 0.0000 0.1161 -0.9932
vn 0.2210 0.1161 0.9683
vn -0.0000 0.1161 0.9932
vn -0.2210 0.1161 -0.9683
vn 0.4310 0.1161 0.8949
vn -0.4310 0.1161 -0.8949
vn 0.6193 0.1161 0.7765
usemtl None.002
s 1
f 57/57/29 58/58/30 59/59/30 60/60/29
f 61/61/31 62/62/32 63/63/32 64/64/31
f 65/65/33 57/57/29 60/60/29 66/66/33
f 67/67/34 61/61/31 64/64/31 68/68/34
f 69/69/35 65/65/33 66/66/33 70/70/35
f 71/71/36 67/67/34 68/68/34 72/72/36
f 73/73/37 69/69/35 70/70/35 74/74/37
f 75/75/38 71/71/36 72/72/36 76/76/38
f 77/77/39 73/73/37 74/74/37 78/78/39
f 79/79/40 75/75/38 76/76/38 80/80/40
f 81/81/41 77/77/39 78/78/39 82/82/41
f 83/83/42 79/79/40 80/80/40 84/84/42
f 85/85/43 81/81/41 82/82/41 86/86/43
f 87/87/44 83/83/42 84/84/42 88/88/44
f 89/89/45 85/85/43 86/86/43 90/90/45
f 91/91/46 87/87/44 88/88/44 92/92/47
f 93/93/48 89/89/45 90/90/45 94/94/48
f 95/95/49 91/91/46 92/92/47 96/96/49
f 97/97/50 93/93/48 94/94/48 98/98/50
f 99/99/51 95/95/49 96/96/49 100/100/51
f 101/101/52 102/102/53 103/103/53 104/104/52
f 102/102/53 97/97/50 98/98/50 103/103/53
f 105/105/54 99/99/51 100/100/51 106/106/54
f 107/107/55 101/101/52 104/104/52 108/108/55
f 109/109/56 105/105/54 106/106/54 110/110/56
f 111/111/57 107/107/55 108/108/55 112/112/57
f 58/58/30 109/109/56 110/110/56 59/59/30
f 62/62/32 111/111/57 112/112/57 63/63/32
o BICCHIERE__bordo
v 0.517941 1.904748 0.413044
v 0.413044 1.904748 0.517941
v -0.596866 1.904748 -0.287435
v -0.517941 1.904748 -0.413043
v 0.596866 1.904748 0.287436
v -0.645861 1.904748 -0.147413
v 0.645861 1.904748 0.147414
v -0.662471 1.904748 0.000001
v 0.662471 1.904748 -0.000000
v -0.645861 1.904748 0.147414
v 0.645861 1.904748 -0.147414
v -0.596866 1.904748 0.287436
v 0.596865 1.904748 -0.287436
v -0.517941 1.904748 0.413045
v 0.517940 1.904748 -0.413044
v -0.413044 1.904748 0.517941
v 0.413043 1.904748 -0.517940
v -0.287435 1.904748 0.596866
v 0.287435 1.904748 -0.596866
v -0.147414 1.904748 0.645861
v 0.147412 1.904748 -0.645862
v -0.000000 1.904748 0.662471
v -0.147414 1.904748 -0.645862
v -0.000000 1.904748 -0.662471
v 0.147414 1.904748 0.645861
v -0.287435 1.904748 -0.596866
v 0.287436 1.904748 0.596866
v -0.413044 1.904748 -0.517940
v 0.492044 1.904748 0.392392
v 0.392392 1.904748 0.492044
v -0.567022 1.904748 -0.273063
v -0.492044 1.904748 -0.392391
v 0.567022 1.904748 0.273064
v -0.613568 1.904748 -0.140042
v 0.613568 1.904748 0.140043
v -0.629347 1.904748 0.000001
v 0.629347 1.904748 0.000000
v -0.613568 1.904748 0.140043
v 0.613568 1.904748 -0.140043
v -0.567022 1.904748 0.273064
v 0.567022 1.904748 -0.273064
v -0.492044 1.904748 0.392392
v 0.492043 1.904748 -0.392392
v -0.392391 1.904748 0.492044
v 0.392391 1.904748 -0.492044
v -0.273063 1.904748 0.567023
v 0.273063 1.904748 -0.567022
v -0.140043 1.904748 0.613569
v 0.140042 1.904748 -0.613568
v -0.000000 1.904748 0.629348
v -0.140043 1.904748 -0.613568
v -0.000000 1.904748 -0.629347
v 0.140043 1.904748 0.613569
v -0.273064 1.904748 -0.567022
v 0.273064 1.904748 0.567023
v -0.392392 1.904748 -0.492043
vt 0.000000 0.000000
vt 0.000000 0.000000
vt 0.000000 0.000000
vt 0.000000 0.000000
vt 0.000000 0.000000
vt 0.000000 0.000000
vt 0.000000 0.000000
vt 0.000000 0.000000
vt 0.000000 0.000000
vt 0.000000 0.000000
vt 0.000000 0.000000
vt 0.000000 0.000000
vt 0.000000 0.000000
vt 0.000000 0.000000
vt 0.000000 0.000000
vt 0.000000 0.000000
vt 0.000000 0.000000
vt 0.000000 0.000000
vt 0.000000 0.000000
vt 0.000000 0.000000
vt 0.000000 0.000000
vt 0.000000 0.000000
vt 0.000000 0.000000
vt 0.000000 0.000000
vt 0.000000 0.000000
vt 0.000000 0.000000
vt 0.000000 0.000000
vt 0.000000 0.000000
vt 0.000000 0.000000
vt 0.000000 0.000000
vt 0.000000 0.000000
vt 0.000000 0.000000
vt 0.000000 0.000000
vt 0.000000 0.000000
vt 0.000000 0.000000
vt 0.000000 0.000000
vt 0.000000 0.000000
vt 0.000000 0.000000
vt 0.000000 0.000000
vt 0.000000 0.000000
vt 0.000000 0.000000
vt 0.000000 0.000000
vt 0.000000 0.000000
vt 0.000000 0.000000
vt 0.000000 0.000000
vt 0.000000 0.000000
vt 0.000000 0.000000
vt 0.000000 0.000000
vt 0.000000 0.000000
vt 0.000000 0.000000
vt 0.000000 0.000000
vt 0.000000 0.000000
vt 0.000000 0.000000
vt 0.000000 0.000000
vt 0.000000 0.000000
vt 0.000000 0.000000
vn 0.0000 1.0000 -0.0000
usemtl None.002
s 1
f 118/113/58 120/114/58 148/115/58 146/116/58
f 125/117/58 127/118/58 155/119/58 153/120/58
f 128/121/58 130/122/58 158/123/58 156/124/58
f 138/125/58 140/126/58 168/127/58 166/128/58
f 132/129/58 134/130/58 162/131/58 160/132/58
f 119/133/58 121/134/58 149/135/58 147/136/58
f 123/137/58 125/117/58 153/120/58 151/138/58
f 115/139/58 118/113/58 146/116/58 143/140/58
f 129/141/58 131/142/58 159/143/58 157/144/58
f 135/145/58 138/125/58 166/128/58 163/146/58
f 113/147/58 117/148/58 145/149/58 141/150/58
f 126/151/58 128/121/58 156/124/58 154/152/58
f 120/114/58 122/153/58 150/154/58 148/115/58
f 124/155/58 126/151/58 154/152/58 152/156/58
f 130/122/58 132/129/58 160/132/58 158/123/58
f 139/157/58 114/158/58 142/159/58 167/160/58
f 122/153/58 124/155/58 152/156/58 150/154/58
f 117/148/58 119/133/58 147/136/58 145/149/58
f 114/158/58 113/147/58 141/150/58 142/159/58
f 121/134/58 123/137/58 151/138/58 149/135/58
f 127/118/58 129/141/58 157/144/58 155/119/58
f 140/126/58 116/161/58 144/162/58 168/127/58
f 131/142/58 133/163/58 161/164/58 159/143/58
f 136/165/58 135/145/58 163/146/58 164/166/58
f 137/167/58 139/157/58 167/160/58 165/168/58
f 116/161/58 115/139/58 143/140/58 144/162/58
f 134/130/58 137/167/58 165/168/58 162/131/58
f 133/163/58 136/165/58 164/166/58 161/164/58
