# Blender v2.92.0 OBJ File: 'Cicchetto_2.blend'
# www.blender.org
mtllib Liquido_aria.mtl
o LIQUIDO__ARIA
v 0.384167 1.791394 0.481730
v -0.000000 1.791394 -0.000000
v 0.481730 1.791394 0.384167
v -0.481729 1.791395 -0.384167
v -0.555137 1.791394 -0.267340
v 0.555137 1.791394 0.267340
v -0.600707 1.791394 -0.137107
v 0.600707 1.791394 0.137107
v -0.616156 1.791394 0.000000
v 0.616156 1.791394 -0.000000
v -0.600707 1.791394 0.137107
v 0.600707 1.791394 -0.137108
v -0.555137 1.791394 0.267340
v 0.555136 1.791394 -0.267340
v -0.481729 1.791394 0.384167
v 0.481729 1.791395 -0.384167
v -0.384166 1.791394 0.481730
v 0.384166 1.791394 -0.481730
v -0.267340 1.791394 0.555137
v 0.267339 1.791394 -0.555137
v -0.137107 1.791394 0.600708
v 0.137106 1.791394 -0.600707
v -0.000000 1.791394 0.616155
v -0.000000 1.791394 -0.616155
v -0.137108 1.791394 -0.600707
v 0.137108 1.791394 0.600707
v -0.267340 1.791394 -0.555137
v 0.267340 1.791394 0.555137
v -0.384167 1.791394 -0.481730
vt 0.000000 0.000000
vt 0.000000 0.000000
vt 0.000000 0.000000
vt 0.000000 0.000000
vt 0.000000 0.000000
vt 0.000000 0.000000
vt 0.000000 0.000000
vt 0.000000 0.000000
vt 0.000000 0.000000
vt 0.000000 0.000000
vt 0.000000 0.000000
vt 0.000000 0.000000
vt 0.000000 0.000000
vt 0.000000 0.000000
vt 0.000000 0.000000
vt 0.000000 0.000000
vt 0.000000 0.000000
vt 0.000000 0.000000
vt 0.000000 0.000000
vt 0.000000 0.000000
vt 0.000000 0.000000
vt 0.000000 0.000000
vt 0.000000 0.000000
vt 0.000000 0.000000
vt 0.000000 0.000000
vt 0.000000 0.000000
vt 0.000000 0.000000
vt 0.000000 0.000000
vt 0.000000 0.000000
vn -0.0000 1.0000 0.0000
usemtl None.001
s 1
f 1/1/1 3/2/1 2/3/1
f 4/4/1 5/5/1 2/3/1
f 3/2/1 6/6/1 2/3/1
f 5/5/1 7/7/1 2/3/1
f 6/6/1 8/8/1 2/3/1
f 7/7/1 9/9/1 2/3/1
f 8/8/1 10/10/1 2/3/1
f 9/9/1 11/11/1 2/3/1
f 10/10/1 12/12/1 2/3/1
f 11/11/1 13/13/1 2/3/1
f 12/12/1 14/14/1 2/3/1
f 13/13/1 15/15/1 2/3/1
f 14/14/1 16/16/1 2/3/1
f 15/15/1 17/17/1 2/3/1
f 16/16/1 18/18/1 2/3/1
f 17/17/1 19/19/1 2/3/1
f 18/18/1 20/20/1 2/3/1
f 19/19/1 21/21/1 2/3/1
f 20/20/1 22/22/1 2/3/1
f 21/21/1 23/23/1 2/3/1
f 24/24/1 25/25/1 2/3/1
f 22/22/1 24/24/1 2/3/1
f 23/23/1 26/26/1 2/3/1
f 25/25/1 27/27/1 2/3/1
f 26/26/1 28/28/1 2/3/1
f 27/27/1 29/29/1 2/3/1
f 28/28/1 1/1/1 2/3/1
f 29/29/1 4/4/1 2/3/1
