# Blender v2.92.0 OBJ File: ''
# www.blender.org
mtllib Bottiglia.mtl
o Bottiglia_Cerchio.014
v 3.180393 0.001113 -2.238652
v 2.924417 0.001113 -2.577129
v 2.306436 0.001113 -2.717331
v 1.688456 0.001113 -2.577129
v 1.432480 0.001113 -2.238652
v 1.688456 0.001113 -1.900174
v 2.306436 0.001113 -1.759972
v 2.924417 0.001113 -1.900174
v 3.554826 3.660776 -2.042380
v 3.442570 3.660776 -2.583360
v 2.664782 3.660776 -2.922414
v 1.677080 3.660776 -2.860929
v 1.058046 3.660776 -2.434923
v 1.170303 3.660776 -1.893943
v 1.948091 3.660776 -1.554889
v 2.935793 3.660776 -1.616374
v 2.514326 4.443161 -2.205967
v 2.495632 4.443161 -2.296055
v 2.366110 4.443161 -2.352516
v 2.201632 4.443161 -2.342277
v 2.098547 4.443161 -2.271336
v 2.117241 4.443161 -2.181249
v 2.246763 4.443161 -2.124788
v 2.411241 4.443161 -2.135026
v 2.514326 4.969425 -2.205967
v 2.495632 4.969425 -2.296055
v 2.366110 4.969425 -2.352516
v 2.201632 4.969425 -2.342277
v 2.098547 4.969425 -2.271336
v 2.117241 4.969425 -2.181249
v 2.246763 4.969425 -2.124788
v 2.411241 4.969425 -2.135026
vt 0.000000 0.000000
vt 0.000000 0.000000
vt 0.000000 0.000000
vt 0.000000 0.000000
vt 0.000000 0.000000
vt 0.000000 0.000000
vt 0.000000 0.000000
vt 0.000000 0.000000
vt 0.000000 0.000000
vt 0.000000 0.000000
vt 0.000000 0.000000
vt 0.000000 0.000000
vt 0.000000 0.000000
vt 0.000000 0.000000
vt 0.000000 0.000000
vt 0.000000 0.000000
vt 0.000000 0.000000
vt 0.000000 0.000000
vt 0.000000 0.000000
vt 0.000000 0.000000
vt 0.000000 0.000000
vt 0.000000 0.000000
vt 0.000000 0.000000
vt 0.000000 0.000000
vt 0.000000 0.000000
vt 0.000000 0.000000
vt 0.000000 0.000000
vt 0.000000 0.000000
vt 0.000000 0.000000
vt 0.000000 0.000000
vt 0.000000 0.000000
vt 0.000000 0.000000
vn -0.1244 -0.0603 -0.9904
vn 0.9176 -0.1019 -0.3842
vn 0.6556 -0.0838 0.7504
vn -0.3240 -0.0661 0.9437
vn -0.6556 -0.0838 -0.7504
vn 0.3240 -0.0661 -0.9437
vn 0.1244 -0.0603 0.9904
vn -0.9176 -0.1019 0.3842
vn 0.3090 0.6342 -0.7088
vn 0.0508 0.5753 0.8164
vn -0.6088 0.7832 0.1263
vn -0.0508 0.5753 -0.8164
vn 0.6088 0.7832 -0.1263
vn 0.4159 0.6795 0.6044
vn -0.3090 0.6342 0.7088
vn -0.4159 0.6795 -0.6044
vn 0.5669 0.0000 0.8238
vn -0.3996 0.0000 0.9167
vn -0.5669 0.0000 -0.8238
vn 0.3996 0.0000 -0.9167
vn 0.0621 0.0000 0.9981
vn -0.9791 0.0000 0.2032
vn -0.0621 0.0000 -0.9981
vn 0.9791 0.0000 -0.2032
usemtl None
s off
f 4/1/1 12/2/1 11/3/1 3/4/1
f 2/5/2 10/6/2 9/7/2 1/8/2
f 1/8/3 9/7/3 16/9/3 8/10/3
f 7/11/4 15/12/4 14/13/4 6/14/4
f 5/15/5 13/16/5 12/2/5 4/1/5
f 3/4/6 11/3/6 10/6/6 2/5/6
f 8/10/7 16/9/7 15/12/7 7/11/7
f 6/14/8 14/13/8 13/16/8 5/15/8
f 10/6/9 11/3/9 19/17/9 18/18/9
f 15/12/10 16/9/10 24/19/10 23/20/10
f 13/16/11 14/13/11 22/21/11 21/22/11
f 11/3/12 12/2/12 20/23/12 19/17/12
f 9/7/13 10/6/13 18/18/13 17/24/13
f 16/9/14 9/7/14 17/24/14 24/19/14
f 14/13/15 15/12/15 23/20/15 22/21/15
f 12/2/16 13/16/16 21/22/16 20/23/16
f 24/19/17 17/24/17 25/25/17 32/26/17
f 22/21/18 23/20/18 31/27/18 30/28/18
f 20/23/19 21/22/19 29/29/19 28/30/19
f 18/18/20 19/17/20 27/31/20 26/32/20
f 23/20/21 24/19/21 32/26/21 31/27/21
f 21/22/22 22/21/22 30/28/22 29/29/22
f 19/17/23 20/23/23 28/30/23 27/31/23
f 17/24/24 18/18/24 26/32/24 25/25/24
o Bottiglia_Contatto_aria-vetro_Cerchio.016
v 3.529216 3.660777 -2.046407
v 3.419262 3.660777 -2.576288
v 2.657431 3.660777 -2.908387
v 1.689991 3.660777 -2.848164
v 1.083657 3.660777 -2.430897
v 1.193610 3.660777 -1.901015
v 1.955442 3.660777 -1.568916
v 2.922882 3.660777 -1.629140
v 2.404867 1.282171 -2.744579
v 1.722880 1.282171 -2.634518
v 3.230141 1.282171 -2.184740
v 3.029195 1.282171 -2.558275
v 2.889993 1.282171 -1.842786
v 1.583678 1.282171 -1.919029
v 2.208006 1.282171 -1.732725
v 1.382732 1.282171 -2.292564
v 2.510061 4.443161 -2.206638
v 2.491751 4.443161 -2.294877
v 2.364886 4.443161 -2.350180
v 2.203782 4.443161 -2.340151
v 2.102812 4.443161 -2.270665
v 2.121122 4.443161 -2.182426
v 2.247987 4.443161 -2.127123
v 2.409091 4.443161 -2.137152
v 2.510061 4.969425 -2.206638
v 2.491751 4.969425 -2.294877
v 2.364886 4.969425 -2.350180
v 2.203782 4.969425 -2.340151
v 2.102812 4.969425 -2.270665
v 2.121122 4.969425 -2.182426
v 2.247987 4.969425 -2.127123
v 2.409091 4.969425 -2.137152
vt 0.000000 0.000000
vt 0.000000 0.000000
vt 0.000000 0.000000
vt 0.000000 0.000000
vt 0.000000 0.000000
vt 0.000000 0.000000
vt 0.000000 0.000000
vt 0.000000 0.000000
vt 0.000000 0.000000
vt 0.000000 0.000000
vt 0.000000 0.000000
vt 0.000000 0.000000
vt 0.000000 0.000000
vt 0.000000 0.000000
vt 0.000000 0.000000
vt 0.000000 0.000000
vt 0.000000 0.000000
vt 0.000000 0.000000
vt 0.000000 0.000000
vt 0.000000 0.000000
vt 0.000000 0.000000
vt 0.000000 0.000000
vt 0.000000 0.000000
vt 0.000000 0.000000
vt 0.000000 0.000000
vt 0.000000 0.000000
vt 0.000000 0.000000
vt 0.000000 0.000000
vt 0.000000 0.000000
vt 0.000000 0.000000
vt 0.000000 0.000000
vt 0.000000 0.000000
vn 0.1024 0.0740 0.9920
vn -0.9378 0.1277 0.3227
vn -0.6225 0.1009 -0.7761
vn 0.3491 0.0828 -0.9334
vn 0.6225 0.1009 0.7761
vn -0.3491 0.0828 0.9334
vn -0.1024 0.0740 -0.9920
vn 0.9378 0.1277 -0.3227
vn 0.4199 -0.6719 0.6101
vn -0.3115 -0.6263 0.7146
vn -0.0512 -0.5673 -0.8219
vn 0.6165 -0.7769 -0.1279
vn 0.0512 -0.5673 0.8219
vn -0.6165 -0.7769 0.1279
vn -0.4199 -0.6719 -0.6101
vn 0.3115 -0.6263 -0.7146
vn -0.3996 0.0000 0.9167
vn -0.0621 0.0000 -0.9981
vn 0.9791 0.0000 -0.2032
vn 0.0621 0.0000 0.9981
vn -0.9791 0.0000 0.2032
vn -0.5669 0.0000 -0.8238
vn 0.3996 0.0000 -0.9167
vn 0.5669 0.0000 0.8238
usemtl None
s off
f 42/33/25 41/34/25 35/35/25 36/36/25
f 44/37/26 43/38/26 33/39/26 34/40/26
f 43/38/27 45/41/27 40/42/27 33/39/27
f 47/43/28 46/44/28 38/45/28 39/46/28
f 48/47/29 42/33/29 36/36/29 37/48/29
f 41/34/30 44/37/30 34/40/30 35/35/30
f 45/41/31 47/43/31 39/46/31 40/42/31
f 46/44/32 48/47/32 37/48/32 38/45/32
f 37/48/33 36/36/33 52/49/33 53/50/33
f 35/35/34 34/40/34 50/51/34 51/52/34
f 40/42/35 39/46/35 55/53/35 56/54/35
f 38/45/36 37/48/36 53/50/36 54/55/36
f 36/36/37 35/35/37 51/52/37 52/49/37
f 34/40/38 33/39/38 49/56/38 50/51/38
f 33/39/39 40/42/39 56/54/39 49/56/39
f 39/46/40 38/45/40 54/55/40 55/53/40
f 51/52/41 50/51/41 58/57/41 59/58/41
f 56/54/42 55/53/42 63/59/42 64/60/42
f 54/55/43 53/50/43 61/61/43 62/62/43
f 52/49/44 51/52/44 59/58/44 60/63/44
f 50/51/45 49/56/45 57/64/45 58/57/45
f 49/56/46 56/54/46 64/60/46 57/64/46
f 55/53/47 54/55/47 62/62/47 63/59/47
f 53/50/48 52/49/48 60/63/48 61/61/48
o Bottiglia_base_Cerchio.020
v 3.180393 0.001113 -2.238652
v 2.924417 0.001113 -2.577129
v 2.306436 0.001113 -2.717331
v 1.688456 0.001113 -2.577129
v 1.432480 0.001113 -2.238652
v 1.688456 0.001113 -1.900174
v 2.306436 0.001113 -1.759972
v 2.924417 0.001113 -1.900174
v 2.306436 0.001113 -2.238652
vt 0.000000 0.000000
vt 0.000000 0.000000
vt 0.000000 0.000000
vt 0.000000 0.000000
vt 0.000000 0.000000
vt 0.000000 0.000000
vt 0.000000 0.000000
vt 0.000000 0.000000
vt 0.000000 0.000000
vn 0.0000 -1.0000 0.0000
usemtl None
s off
f 67/65/49 73/66/49 68/67/49
f 65/68/49 73/66/49 66/69/49
f 72/70/49 73/66/49 65/68/49
f 70/71/49 73/66/49 71/72/49
f 68/67/49 73/66/49 69/73/49
f 66/69/49 73/66/49 67/65/49
f 71/72/49 73/66/49 72/70/49
f 69/73/49 73/66/49 70/71/49
o Bottiglia_Bordo_Cerchio.021
v 2.514326 4.969425 -2.205967
v 2.495632 4.969425 -2.296055
v 2.366110 4.969425 -2.352516
v 2.201632 4.969425 -2.342277
v 2.098547 4.969425 -2.271336
v 2.117241 4.969425 -2.181249
v 2.246763 4.969425 -2.124788
v 2.411241 4.969425 -2.135026
v 2.510061 4.969425 -2.206638
v 2.491751 4.969425 -2.294877
v 2.364886 4.969425 -2.350180
v 2.203782 4.969425 -2.340151
v 2.102812 4.969425 -2.270665
v 2.121122 4.969425 -2.182426
v 2.247987 4.969425 -2.127123
v 2.409091 4.969425 -2.137152
vt 0.000000 0.000000
vt 0.000000 0.000000
vt 0.000000 0.000000
vt 0.000000 0.000000
vt 0.000000 0.000000
vt 0.000000 0.000000
vt 0.000000 0.000000
vt 0.000000 0.000000
vt 0.000000 0.000000
vt 0.000000 0.000000
vt 0.000000 0.000000
vt 0.000000 0.000000
vt 0.000000 0.000000
vt 0.000000 0.000000
vt 0.000000 0.000000
vt 0.000000 0.000000
vn 0.0000 1.0000 0.0000
usemtl None
s off
f 80/74/50 81/75/50 89/76/50 88/77/50
f 78/78/50 79/79/50 87/80/50 86/81/50
f 76/82/50 77/83/50 85/84/50 84/85/50
f 74/86/50 75/87/50 83/88/50 82/89/50
f 81/75/50 74/86/50 82/89/50 89/76/50
f 79/79/50 80/74/50 88/77/50 87/80/50
f 77/83/50 78/78/50 86/81/50 85/84/50
f 75/87/50 76/82/50 84/85/50 83/88/50
