# Blender v2.92.0 OBJ File: ''
# www.blender.org
mtllib Liquido.mtl
o Bottiglia_Liquido_Cerchio.017
v 3.113583 0.355163 -2.238652
v 2.877175 0.355163 -2.551254
v 2.306436 0.355163 -2.680738
v 1.735698 0.355163 -2.551254
v 1.499290 0.355163 -2.238652
v 1.735698 0.355163 -1.926049
v 2.306436 0.355163 -1.796565
v 2.877175 0.355163 -1.926049
v 2.404867 1.282171 -2.744579
v 1.722880 1.282171 -2.634518
v 3.230141 1.282171 -2.184740
v 3.029195 1.282171 -2.558275
v 2.889993 1.282171 -1.842786
v 1.583678 1.282171 -1.919029
v 2.208006 1.282171 -1.732725
v 1.382732 1.282171 -2.292564
vt 0.000000 0.000000
vt 0.000000 0.000000
vt 0.000000 0.000000
vt 0.000000 0.000000
vt 0.000000 0.000000
vt 0.000000 0.000000
vt 0.000000 0.000000
vt 0.000000 0.000000
vt 0.000000 0.000000
vt 0.000000 0.000000
vt 0.000000 0.000000
vt 0.000000 0.000000
vt 0.000000 0.000000
vt 0.000000 0.000000
vt 0.000000 0.000000
vt 0.000000 0.000000
vn -0.8383 -0.1079 0.5344
vn 0.1874 -0.0691 0.9799
vn 0.2548 -0.0713 -0.9644
vn -0.7466 -0.1008 -0.6576
vn -0.2548 -0.0713 0.9644
vn 0.7466 -0.1008 0.6576
vn 0.8383 -0.1079 -0.5344
vn -0.1874 -0.0691 -0.9799
usemtl None
s off
f 6/1/1 14/2/1 16/3/1 5/4/1
f 8/5/2 13/6/2 15/7/2 7/8/2
f 3/9/3 9/10/3 12/11/3 2/12/3
f 5/4/4 16/3/4 10/13/4 4/14/4
f 7/8/5 15/7/5 14/2/5 6/1/5
f 1/15/6 11/16/6 13/6/6 8/5/6
f 2/12/7 12/11/7 11/16/7 1/15/7
f 4/14/8 10/13/8 9/10/8 3/9/8
o Bottiglia_Liquido_base_Cerchio.018
v 3.113583 0.355163 -2.238652
v 2.877175 0.355163 -2.551254
v 2.306436 0.355163 -2.680738
v 1.735698 0.355163 -2.551254
v 1.499290 0.355163 -2.238652
v 1.735698 0.355163 -1.926049
v 2.306436 0.355163 -1.796565
v 2.877175 0.355163 -1.926049
v 2.306437 0.355163 -2.238652
vt 0.000000 0.000000
vt 0.000000 0.000000
vt 0.000000 0.000000
vt 0.000000 0.000000
vt 0.000000 0.000000
vt 0.000000 0.000000
vt 0.000000 0.000000
vt 0.000000 0.000000
vt 0.000000 0.000000
vn 0.0000 -1.0000 0.0000
usemtl None
s off
f 19/17/9 25/18/9 20/19/9
f 17/20/9 25/18/9 18/21/9
f 24/22/9 25/18/9 17/20/9
f 22/23/9 25/18/9 23/24/9
f 20/19/9 25/18/9 21/25/9
f 18/21/9 25/18/9 19/17/9
f 23/24/9 25/18/9 24/22/9
f 21/25/9 25/18/9 22/23/9
