# Blender v2.92.0 OBJ File: 'Cocktail.blend'
# www.blender.org
mtllib GLASS_contact.mtl
o LIQUID__AIR
v 0.223097 3.967652 -0.972835
v 0.433837 3.967652 -0.899094
v 0.001233 3.967652 -0.000780
v 0.001233 3.967652 0.996275
v -0.220631 3.967652 0.971278
v -0.220632 3.967652 -0.972834
v 0.001233 3.967652 -0.997833
v 0.223099 3.967652 0.971276
v -0.431372 3.967652 -0.899093
v 0.433839 3.967652 0.897536
v -0.620420 3.967652 -0.780307
v 0.622887 3.967652 0.778749
v 0.780762 3.967652 0.620874
v 0.622885 3.967652 -0.780308
v 0.780761 3.967652 -0.622433
v -0.431372 3.967652 0.897536
v -0.620419 3.967652 0.778749
v 0.973289 3.967652 0.221085
v 0.899548 3.967652 0.431826
v -0.970822 3.967652 -0.222644
v -0.897081 3.967652 -0.433384
v -0.778294 3.967652 -0.622432
v -0.778294 3.967652 0.620874
v 0.899547 3.967652 -0.433385
v -0.897081 3.967652 0.431826
v 0.973289 3.967652 -0.222645
v -0.970822 3.967652 0.221086
v 0.998288 3.967652 -0.000780
v -0.995821 3.967652 -0.000779
vt 0.000000 0.000000
vt 0.000000 0.000000
vt 0.000000 0.000000
vt 0.000000 0.000000
vt 0.000000 0.000000
vt 0.000000 0.000000
vt 0.000000 0.000000
vt 0.000000 0.000000
vt 0.000000 0.000000
vt 0.000000 0.000000
vt 0.000000 0.000000
vt 0.000000 0.000000
vt 0.000000 0.000000
vt 0.000000 0.000000
vt 0.000000 0.000000
vt 0.000000 0.000000
vt 0.000000 0.000000
vt 0.000000 0.000000
vt 0.000000 0.000000
vt 0.000000 0.000000
vt 0.000000 0.000000
vt 0.000000 0.000000
vt 0.000000 0.000000
vt 0.000000 0.000000
vt 0.000000 0.000000
vt 0.000000 0.000000
vt 0.000000 0.000000
vt 0.000000 0.000000
vt 0.000000 0.000000
vn 0.0000 1.0000 -0.0000
usemtl None.004
s 1
f 1/1/1 3/2/1 2/3/1
f 4/4/1 3/2/1 5/5/1
f 6/6/1 3/2/1 7/7/1
f 7/7/1 3/2/1 1/1/1
f 8/8/1 3/2/1 4/4/1
f 9/9/1 3/2/1 6/6/1
f 10/10/1 3/2/1 8/8/1
f 11/11/1 3/2/1 9/9/1
f 12/12/1 3/2/1 10/10/1
f 13/13/1 3/2/1 12/12/1
f 14/14/1 3/2/1 15/15/1
f 16/16/1 3/2/1 17/17/1
f 2/3/1 3/2/1 14/14/1
f 5/5/1 3/2/1 16/16/1
f 18/18/1 3/2/1 19/19/1
f 20/20/1 3/2/1 21/21/1
f 19/19/1 3/2/1 13/13/1
f 21/21/1 3/2/1 22/22/1
f 22/22/1 3/2/1 11/11/1
f 17/17/1 3/2/1 23/23/1
f 15/15/1 3/2/1 24/24/1
f 23/23/1 3/2/1 25/25/1
f 24/24/1 3/2/1 26/26/1
f 25/25/1 3/2/1 27/27/1
f 26/26/1 3/2/1 28/28/1
f 27/27/1 3/2/1 29/29/1
f 28/28/1 3/2/1 18/18/1
f 29/29/1 3/2/1 20/20/1
