# Blender v2.92.0 OBJ File: 'Cocktail.blend'
# www.blender.org
mtllib GLASS_liquid.mtl
o LIQUID__outline
v -0.683608 0.323368 -0.546923
v -0.778294 3.967652 -0.622432
v -0.620420 3.967652 -0.780307
v -0.544909 0.323368 -0.685622
v 0.547376 0.323368 0.684060
v 0.622887 3.967651 0.778749
v 0.433839 3.967651 0.897536
v 0.381293 0.323367 0.788419
v -0.431372 3.967652 -0.899093
v -0.378825 0.323368 -0.789980
v 0.223099 3.967651 0.971276
v 0.196150 0.323367 0.853203
v -0.220632 3.967652 -0.972834
v -0.193683 0.323369 -0.854763
v 0.001233 3.967651 0.996275
v 0.001233 0.323367 0.875165
v 0.001233 0.323369 -0.876725
v 0.001233 3.967652 -0.997833
v 0.223097 3.967652 -0.972835
v 0.196148 0.323369 -0.854764
v -0.220631 3.967651 0.971278
v -0.193682 0.323367 0.853203
v 0.433837 3.967652 -0.899094
v 0.381291 0.323368 -0.789980
v -0.431372 3.967651 0.897536
v -0.378825 0.323367 0.788419
v 0.622885 3.967652 -0.780308
v 0.547375 0.323368 -0.685623
v -0.620419 3.967651 0.778749
v -0.544909 0.323368 0.684061
v 0.780761 3.967652 -0.622433
v 0.686074 0.323368 -0.546924
v -0.778294 3.967652 0.620874
v -0.683608 0.323368 0.545362
v 0.899547 3.967652 -0.433385
v 0.790432 0.323368 -0.380839
v -0.897081 3.967652 0.431826
v -0.787966 0.323368 0.379278
v 0.973289 3.967652 -0.222645
v 0.855216 0.323368 -0.195698
v -0.970822 3.967652 0.221086
v -0.852749 0.323368 0.194136
v 0.998288 3.967652 -0.000780
v 0.877178 0.323368 -0.000781
v -0.995821 3.967652 -0.000779
v -0.874712 0.323368 -0.000780
v 0.973289 3.967652 0.221085
v 0.855217 0.323368 0.194135
v -0.970822 3.967652 -0.222644
v -0.852749 0.323368 -0.195697
v 0.899548 3.967652 0.431826
v 0.790433 0.323368 0.379278
v -0.897081 3.967652 -0.433384
v -0.787966 0.323368 -0.380838
v 0.780762 3.967652 0.620874
v 0.686075 0.323368 0.545361
vt 0.000000 0.000000
vt 0.000000 0.000000
vt 0.000000 0.000000
vt 0.000000 0.000000
vt 0.000000 0.000000
vt 0.000000 0.000000
vt 0.000000 0.000000
vt 0.000000 0.000000
vt 0.000000 0.000000
vt 0.000000 0.000000
vt 0.000000 0.000000
vt 0.000000 0.000000
vt 0.000000 0.000000
vt 0.000000 0.000000
vt 0.000000 0.000000
vt 0.000000 0.000000
vt 0.000000 0.000000
vt 0.000000 0.000000
vt 0.000000 0.000000
vt 0.000000 0.000000
vt 0.000000 0.000000
vt 0.000000 0.000000
vt 0.000000 0.000000
vt 0.000000 0.000000
vt 0.000000 0.000000
vt 0.000000 0.000000
vt 0.000000 0.000000
vt 0.000000 0.000000
vt 0.000000 0.000000
vt 0.000000 0.000000
vt 0.000000 0.000000
vt 0.000000 0.000000
vt 0.000000 0.000000
vt 0.000000 0.000000
vt 0.000000 0.000000
vt 0.000000 0.000000
vt 0.000000 0.000000
vt 0.000000 0.000000
vt 0.000000 0.000000
vt 0.000000 0.000000
vt 0.000000 0.000000
vt 0.000000 0.000000
vt 0.000000 0.000000
vt 0.000000 0.000000
vt 0.000000 0.000000
vt 0.000000 0.000000
vt 0.000000 0.000000
vt 0.000000 0.000000
vt 0.000000 0.000000
vt 0.000000 0.000000
vt 0.000000 0.000000
vt 0.000000 0.000000
vt 0.000000 0.000000
vt 0.000000 0.000000
vt 0.000000 0.000000
vt 0.000000 0.000000
vn -0.7814 -0.0332 -0.6231
vn -0.6231 -0.0332 -0.7814
vn 0.6231 -0.0332 0.7814
vn 0.4336 -0.0332 0.9005
vn -0.4336 -0.0332 -0.9005
vn 0.2224 -0.0332 0.9744
vn -0.2224 -0.0332 -0.9744
vn 0.0000 -0.0332 0.9994
vn -0.0000 -0.0332 -0.9994
vn 0.2224 -0.0332 -0.9744
vn -0.2224 -0.0332 0.9744
vn 0.4336 -0.0332 -0.9005
vn -0.4336 -0.0332 0.9005
vn 0.6231 -0.0332 -0.7814
vn -0.6231 -0.0332 0.7814
vn 0.7814 -0.0332 -0.6231
vn -0.7814 -0.0332 0.6231
vn 0.9005 -0.0332 -0.4336
vn -0.9005 -0.0332 0.4336
vn 0.9744 -0.0332 -0.2224
vn -0.9744 -0.0332 0.2224
vn 0.9994 -0.0332 -0.0000
vn -0.9994 -0.0332 0.0000
vn 0.9744 -0.0332 0.2224
vn -0.9744 -0.0332 -0.2224
vn 0.9005 -0.0332 0.4336
vn -0.9005 -0.0332 -0.4336
vn 0.7814 -0.0332 0.6231
usemtl None.004
s 1
f 1/1/1 2/2/1 3/3/2 4/4/2
f 5/5/3 6/6/3 7/7/4 8/8/4
f 4/4/2 3/3/2 9/9/5 10/10/5
f 8/8/4 7/7/4 11/11/6 12/12/6
f 10/10/5 9/9/5 13/13/7 14/14/7
f 12/12/6 11/11/6 15/15/8 16/16/8
f 17/17/9 18/18/9 19/19/10 20/20/10
f 14/14/7 13/13/7 18/18/9 17/17/9
f 16/16/8 15/15/8 21/21/11 22/22/11
f 20/20/10 19/19/10 23/23/12 24/24/12
f 22/22/11 21/21/11 25/25/13 26/26/13
f 24/24/12 23/23/12 27/27/14 28/28/14
f 26/26/13 25/25/13 29/29/15 30/30/15
f 28/28/14 27/27/14 31/31/16 32/32/16
f 30/30/15 29/29/15 33/33/17 34/34/17
f 32/32/16 31/31/16 35/35/18 36/36/18
f 34/34/17 33/33/17 37/37/19 38/38/19
f 36/36/18 35/35/18 39/39/20 40/40/20
f 38/38/19 37/37/19 41/41/21 42/42/21
f 40/40/20 39/39/20 43/43/22 44/44/22
f 42/42/21 41/41/21 45/45/23 46/46/23
f 44/44/22 43/43/22 47/47/24 48/48/24
f 46/46/23 45/45/23 49/49/25 50/50/25
f 48/48/24 47/47/24 51/51/26 52/52/26
f 50/50/25 49/49/25 53/53/27 54/54/27
f 52/52/26 51/51/26 55/55/28 56/56/28
f 54/54/27 53/53/27 2/2/1 1/1/1
f 56/56/28 55/55/28 6/6/3 5/5/3
o LIQUID__base
v 0.196148 0.323369 -0.854764
v 0.381291 0.323368 -0.789980
v 0.001233 0.323368 -0.000780
v 0.001233 0.323367 0.875165
v -0.193682 0.323367 0.853203
v -0.193683 0.323369 -0.854763
v 0.001233 0.323369 -0.876725
v 0.196150 0.323367 0.853203
v -0.378825 0.323368 -0.789980
v 0.381293 0.323367 0.788419
v -0.544909 0.323368 -0.685622
v 0.547376 0.323368 0.684060
v 0.686075 0.323368 0.545361
v 0.547375 0.323368 -0.685623
v 0.686074 0.323368 -0.546924
v -0.378825 0.323367 0.788419
v -0.544909 0.323368 0.684061
v 0.855217 0.323368 0.194135
v 0.790433 0.323368 0.379278
v -0.852749 0.323368 -0.195697
v -0.787966 0.323368 -0.380838
v -0.683608 0.323368 -0.546923
v -0.683608 0.323368 0.545362
v 0.790432 0.323368 -0.380839
v -0.787966 0.323368 0.379278
v 0.855216 0.323368 -0.195698
v -0.852749 0.323368 0.194136
v 0.877178 0.323368 -0.000781
v -0.874712 0.323368 -0.000780
vt 0.000000 0.000000
vt 0.000000 0.000000
vt 0.000000 0.000000
vt 0.000000 0.000000
vt 0.000000 0.000000
vt 0.000000 0.000000
vt 0.000000 0.000000
vt 0.000000 0.000000
vt 0.000000 0.000000
vt 0.000000 0.000000
vt 0.000000 0.000000
vt 0.000000 0.000000
vt 0.000000 0.000000
vt 0.000000 0.000000
vt 0.000000 0.000000
vt 0.000000 0.000000
vt 0.000000 0.000000
vt 0.000000 0.000000
vt 0.000000 0.000000
vt 0.000000 0.000000
vt 0.000000 0.000000
vt 0.000000 0.000000
vt 0.000000 0.000000
vt 0.000000 0.000000
vt 0.000000 0.000000
vt 0.000000 0.000000
vt 0.000000 0.000000
vt 0.000000 0.000000
vt 0.000000 0.000000
vn -0.0000 -1.0000 -0.0000
usemtl None.004
s 1
f 57/57/29 58/58/29 59/59/29
f 60/60/29 61/61/29 59/59/29
f 62/62/29 63/63/29 59/59/29
f 63/63/29 57/57/29 59/59/29
f 64/64/29 60/60/29 59/59/29
f 65/65/29 62/62/29 59/59/29
f 66/66/29 64/64/29 59/59/29
f 67/67/29 65/65/29 59/59/29
f 68/68/29 66/66/29 59/59/29
f 69/69/29 68/68/29 59/59/29
f 70/70/29 71/71/29 59/59/29
f 72/72/29 73/73/29 59/59/29
f 58/58/29 70/70/29 59/59/29
f 61/61/29 72/72/29 59/59/29
f 74/74/29 75/75/29 59/59/29
f 76/76/29 77/77/29 59/59/29
f 75/75/29 69/69/29 59/59/29
f 77/77/29 78/78/29 59/59/29
f 78/78/29 67/67/29 59/59/29
f 73/73/29 79/79/29 59/59/29
f 71/71/29 80/80/29 59/59/29
f 79/79/29 81/81/29 59/59/29
f 80/80/29 82/82/29 59/59/29
f 81/81/29 83/83/29 59/59/29
f 82/82/29 84/84/29 59/59/29
f 83/83/29 85/85/29 59/59/29
f 84/84/29 74/74/29 59/59/29
f 85/85/29 76/76/29 59/59/29
