# Blender v2.92.0 OBJ File: 'Cocktail.blend'
# www.blender.org
mtllib ICE.mtl
o ICE
v -0.258425 3.122324 0.466738
v -0.155774 2.941263 0.365599
v 0.019693 3.108329 0.772708
v 0.046224 2.939211 -0.057778
v -0.346662 3.171997 0.314872
v 0.132471 2.813984 0.112954
v 0.116528 2.928376 0.665282
v 0.401534 2.801076 0.400675
v 0.556592 2.915072 0.504076
v 0.171765 2.911044 -0.149232
v 0.656254 2.895508 0.383950
v 0.159423 3.860494 0.693236
v 0.273412 3.820494 0.797230
v 0.301208 3.927373 0.533156
v 0.782543 3.600948 0.326887
v 0.577846 3.804020 0.283657
v 0.257697 3.048105 0.781766
v 0.693935 3.621718 0.197522
v -0.241058 3.835460 0.253470
v -0.126381 3.827928 0.137806
v 0.408197 3.635845 -0.117164
v 0.020537 3.944207 0.248581
v 0.260193 3.613076 -0.218798
v 0.305546 3.816907 -0.016025
vt 0.250000 0.000000
vt 0.250000 0.250000
vt 0.760610 0.000000
vt 0.000000 0.774539
vt 0.000000 0.024111
vt 0.263604 0.750000
vt 0.750000 0.250001
vt 0.750000 0.750000
vt 1.000000 0.774401
vt 0.019021 1.000000
vt 0.978284 1.000000
vt 0.774400 0.000000
vt 1.000000 0.021716
vt 0.750000 0.270716
vt 1.000000 0.980979
vt 0.750000 0.750000
vt 0.000000 0.239391
vt 0.000000 0.000000
vt 0.250000 0.250000
vt 0.774895 1.000000
vt 0.250000 1.000000
vt 1.000000 0.250000
vt 0.000000 0.962117
vt 0.250001 0.750000
vn -0.8056 -0.2277 0.5470
vn -0.6038 -0.7903 0.1045
vn -0.4813 -0.2329 0.8450
vn -0.6555 -0.4456 -0.6098
vn -0.9808 -0.1695 -0.0967
vn -0.1726 -0.9667 -0.1888
vn -0.2249 -0.8079 0.5447
vn 0.1458 -0.9775 0.1523
vn 0.5435 -0.5030 0.6720
vn 0.0130 -0.5449 -0.8384
vn 0.8180 -0.5746 0.0259
vn -0.4578 0.6620 0.5935
vn 0.1316 0.4923 0.8604
vn 0.2624 0.9457 0.1919
vn 0.9732 0.2203 0.0656
vn 0.5780 0.8090 -0.1072
vn -0.5253 0.5002 -0.6884
vn -0.8809 0.4688 -0.0655
vn -0.3215 0.9440 -0.0741
vn 0.7723 0.2410 -0.5878
vn 0.6355 0.2513 -0.7301
vn 0.2629 -0.3732 0.8897
vn -0.0054 0.2524 -0.9676
vn 0.2072 0.8183 -0.5361
usemtl None.003
s 1
f 1/1/1 2/2/2 3/3/3
f 4/4/4 2/2/2 5/5/5
f 4/4/4 6/6/6 2/2/2
f 6/6/6 7/7/7 2/2/2
f 8/8/8 9/9/9 7/7/7
f 4/4/4 10/10/10 6/6/6
f 11/11/11 9/9/9 8/8/8
f 12/12/12 13/13/13 14/14/14
f 15/15/15 16/16/16 14/14/14
f 20/17/17 19/18/18 22/19/19
f 15/15/15 18/20/20 16/16/16
f 5/5/5 19/18/18 20/17/17
f 10/10/10 21/21/21 18/20/20
f 5/5/5 20/17/17 4/4/4
f 5/5/5 2/2/2 1/1/1
f 2/2/2 7/7/7 3/3/3
f 11/11/11 8/8/8 6/6/6 10/10/10
f 7/7/7 9/9/9 17/22/22
f 7/7/7 6/6/6 8/8/8
f 22/19/19 19/18/18 1/1/1 12/12/12
f 23/23/23 20/17/17 22/19/19 24/24/24
f 12/12/12 14/14/14 22/19/19
f 13/13/13 15/15/15 14/14/14
f 16/16/16 24/24/24 22/19/19 14/14/14
f 23/23/23 24/24/24 21/21/21
f 24/24/24 18/20/20 21/21/21
f 24/24/24 16/16/16 18/20/20
f 4/4/4 20/17/17 23/23/23
f 11/11/11 10/10/10 18/20/20
f 9/9/9 11/11/11 15/15/15
f 19/18/18 5/5/5 1/1/1
f 10/10/10 4/4/4 23/23/23
f 11/11/11 18/20/20 15/15/15
f 10/10/10 23/23/23 21/21/21
f 3/3/3 12/12/12 1/1/1
f 13/13/13 17/22/22 9/9/9 15/15/15
f 7/7/7 17/22/22 3/3/3
f 12/12/12 3/3/3 13/13/13
f 17/22/22 13/13/13 3/3/3
