# Blender v2.92.0 OBJ File: 'Cocktail.blend'
# www.blender.org
mtllib STRAW.mtl
o STRAW
v 0.641251 0.357717 -0.059832
v -1.250171 5.445510 -0.085071
v -1.124204 5.492518 0.083528
v 0.749143 0.397981 0.084573
v 0.672131 0.369241 -0.086117
v -1.164709 5.477403 0.104348
v -1.209666 5.460626 -0.105891
v 0.710637 0.383610 0.093954
v 0.710637 0.383612 -0.095498
v -1.164709 5.477404 -0.105891
v -1.209666 5.460625 0.104348
v 0.749143 0.397982 -0.086117
v 0.672131 0.369240 0.084573
v -1.124205 5.492519 -0.085071
v -1.250171 5.445509 0.083528
v 0.780022 0.409505 -0.059832
v 0.641251 0.357717 0.058289
v -1.096174 5.502980 -0.047554
v -1.278201 5.435049 0.046011
v 0.797159 0.415901 -0.021850
v 0.624115 0.351322 0.020307
v -1.086170 5.506713 -0.000772
v -1.288205 5.431315 -0.000772
v 0.797159 0.415901 0.020307
v 0.624115 0.351322 -0.021850
v -1.096174 5.502980 0.046011
v -1.278201 5.435049 -0.047554
v 0.780022 0.409505 0.058289
vt 0.000000 0.000000
vt 0.000000 0.000000
vt 0.000000 0.000000
vt 0.000000 0.000000
vt 0.000000 0.000000
vt 0.000000 0.000000
vt 0.000000 0.000000
vt 0.000000 0.000000
vt 0.000000 0.000000
vt 0.000000 0.000000
vt 0.000000 0.000000
vt 0.000000 0.000000
vt 0.000000 0.000000
vt 0.000000 0.000000
vt 0.000000 0.000000
vt 0.000000 0.000000
vt 0.000000 0.000000
vt 0.000000 0.000000
vt 0.000000 0.000000
vt 0.000000 0.000000
vt 0.000000 0.000000
vt 0.000000 0.000000
vt 0.000000 0.000000
vt 0.000000 0.000000
vt 0.000000 0.000000
vt 0.000000 0.000000
vt 0.000000 0.000000
vt 0.000000 0.000000
vn 0.2092 0.0760 -0.9749
vn 0.4075 0.1490 -0.9010
vn 0.0010 -0.0027 -1.0000
vn -0.8434 -0.3169 -0.4339
vn -0.7315 -0.2761 -0.6235
vn -0.9124 -0.3436 -0.2225
vn -0.5834 -0.2198 -0.7818
vn -0.2078 -0.0796 -0.9749
vn -0.4055 -0.1544 -0.9010
vn 0.2092 0.0760 0.9749
vn 0.0010 -0.0027 1.0000
vn 0.4075 0.1490 0.9010
vn 0.8448 0.3132 0.4339
vn 0.5848 0.2162 0.7818
vn 0.7335 0.2706 0.6235
vn -0.2078 -0.0796 0.9749
vn -0.4055 -0.1544 0.9010
vn 0.5848 0.2162 -0.7818
vn -0.5834 -0.2198 0.7818
vn 0.7335 0.2706 -0.6235
vn -0.7315 -0.2761 0.6235
vn 0.8448 0.3132 -0.4339
vn -0.8434 -0.3169 0.4339
vn 0.9144 0.3381 -0.2225
vn -0.9124 -0.3436 0.2225
vn 0.9376 0.3478 -0.0000
vn -0.9362 -0.3515 0.0000
vn 0.9144 0.3381 0.2225
usemtl None.004
s 1
f 10/1/1 12/2/2 9/3/3
f 27/4/4 1/5/5 25/6/6
f 2/7/7 7/8/8 5/9/9
f 6/10/10 8/11/11 4/12/12
f 7/8/8 9/3/3 5/9/9
f 26/13/13 3/14/14 28/15/15
f 6/10/10 11/16/16 8/11/11
f 7/8/8 10/1/1 9/3/3
f 11/16/16 13/17/17 8/11/11
f 10/1/1 14/18/18 12/2/2
f 11/16/16 15/19/19 13/17/17
f 14/18/18 16/20/20 12/2/2
f 15/19/19 17/21/21 13/17/17
f 14/18/18 18/22/22 16/20/20
f 15/19/19 19/23/23 17/21/21
f 18/22/22 20/24/24 16/20/20
f 19/23/23 21/25/25 17/21/21
f 18/22/22 22/26/26 20/24/24
f 19/23/23 23/27/27 21/25/25
f 22/26/26 24/28/28 20/24/24
f 23/27/27 25/6/6 21/25/25
f 22/26/26 26/13/13 24/28/28
f 23/27/27 27/4/4 25/6/6
f 26/13/13 28/15/15 24/28/28
f 2/7/7 5/9/9 1/5/5
f 3/14/14 6/10/10 4/12/12
f 27/4/4 2/7/7 1/5/5
f 4/12/12 28/15/15 3/14/14
