# Blender v2.92.0 OBJ File: ''
# www.blender.org
mtllib Contatto_aria_liquido.mtl
o Contatto_aria-liquido_Cerchio.012
v -0.711197 0.701655 -0.075786
v -0.556481 0.701655 0.449303
v 0.075786 0.701655 -0.711197
v -0.449303 0.701655 -0.556481
v 0.556481 0.701655 -0.449303
v 0.449303 0.701655 0.556480
v 0.711197 0.701655 0.075786
v -0.075786 0.701655 0.711197
v 0.000000 0.701655 -0.000000
vt 0.000000 0.000000
vt 0.000000 0.000000
vt 0.000000 0.000000
vt 0.000000 0.000000
vt 0.000000 0.000000
vt 0.000000 0.000000
vt 0.000000 0.000000
vt 0.000000 0.000000
vt 0.000000 0.000000
vn 0.0000 1.0000 0.0000
usemtl None
s off
f 4/1/1 9/2/1 3/3/1
f 7/4/1 9/2/1 6/5/1
f 1/6/1 9/2/1 4/1/1
f 6/5/1 9/2/1 8/7/1
f 2/8/1 9/2/1 1/6/1
f 3/3/1 9/2/1 5/9/1
f 8/7/1 9/2/1 2/8/1
f 5/9/1 9/2/1 7/4/1
