# Blender v2.92.0 OBJ File: ''
# www.blender.org
mtllib Liquido.mtl
o Liquido_Cerchio.010
v 0.000000 0.193919 -0.621454
v -0.439434 0.193919 -0.439434
v -0.621454 0.193919 0.000000
v -0.439434 0.193919 0.439434
v 0.000000 0.193919 0.621454
v 0.439435 0.193919 0.439434
v 0.621454 0.193919 -0.000000
v 0.439435 0.193919 -0.439434
v -0.711197 0.701655 -0.075786
v -0.556481 0.701655 0.449303
v 0.075786 0.701655 -0.711197
v -0.449303 0.701655 -0.556481
v 0.556481 0.701655 -0.449303
v 0.449303 0.701655 0.556480
v 0.711197 0.701655 0.075786
v -0.075786 0.701655 0.711197
vt 0.000000 0.000000
vt 0.000000 0.000000
vt 0.000000 0.000000
vt 0.000000 0.000000
vt 0.000000 0.000000
vt 0.000000 0.000000
vt 0.000000 0.000000
vt 0.000000 0.000000
vt 0.000000 0.000000
vt 0.000000 0.000000
vt 0.000000 0.000000
vt 0.000000 0.000000
vt 0.000000 0.000000
vt 0.000000 0.000000
vt 0.000000 0.000000
vt 0.000000 0.000000
vn 0.3249 -0.1684 0.9306
vn 0.9306 -0.1684 -0.3249
vn -0.8878 -0.1684 -0.4283
vn -0.4283 -0.1684 0.8878
vn 0.8878 -0.1684 0.4283
vn 0.4283 -0.1684 -0.8878
vn -0.3249 -0.1684 -0.9306
vn -0.9306 -0.1684 0.3249
usemtl None
s off
f 6/1/1 14/2/1 16/3/1 5/4/1
f 8/5/2 13/6/2 15/7/2 7/8/2
f 3/9/3 9/10/3 12/11/3 2/12/3
f 5/4/4 16/3/4 10/13/4 4/14/4
f 7/8/5 15/7/5 14/2/5 6/1/5
f 1/15/6 11/16/6 13/6/6 8/5/6
f 2/12/7 12/11/7 11/16/7 1/15/7
f 4/14/8 10/13/8 9/10/8 3/9/8
o Liquido_base_Cerchio.011
v 0.000000 0.193919 -0.621454
v -0.439434 0.193919 -0.439434
v -0.621454 0.193919 0.000000
v -0.439434 0.193919 0.439434
v 0.000000 0.193919 0.621454
v 0.439435 0.193919 0.439434
v 0.621454 0.193919 -0.000000
v 0.439435 0.193919 -0.439434
v 0.000000 0.193919 -0.000000
vt 0.000000 0.000000
vt 0.000000 0.000000
vt 0.000000 0.000000
vt 0.000000 0.000000
vt 0.000000 0.000000
vt 0.000000 0.000000
vt 0.000000 0.000000
vt 0.000000 0.000000
vt 0.000000 0.000000
vn 0.0000 -1.0000 0.0000
usemtl None
s off
f 19/17/9 25/18/9 20/19/9
f 17/20/9 25/18/9 18/21/9
f 24/22/9 25/18/9 17/20/9
f 22/23/9 25/18/9 23/24/9
f 20/19/9 25/18/9 21/25/9
f 18/21/9 25/18/9 19/17/9
f 23/24/9 25/18/9 24/22/9
f 21/25/9 25/18/9 22/23/9
